<?xml version="1.0" encoding="UTF-8" standalone="no"?><!DOCTYPE svg PUBLIC "-//W3C//DTD SVG 1.1//EN" "http://www.w3.org/Graphics/SVG/1.1/DTD/svg11.dtd"><svg width="100%" height="100%" viewBox="0 0 5000 1667" version="1.1" xmlns="http://www.w3.org/2000/svg" xmlns:xlink="http://www.w3.org/1999/xlink" xml:space="preserve" xmlns:serif="http://www.serif.com/" style="fill-rule:evenodd;clip-rule:evenodd;"><rect id="logo-full-color" x="0" y="0" width="5000" height="1666.67" style="fill:none;"/><clipPath id="_clip1"><rect x="0" y="0" width="5000" height="1666.67"/></clipPath><g clip-path="url(#_clip1)"><path d="M556.031,468.847c70.865,-14.014 146.736,-19.123 215.443,7.335c33.465,14.221 66.223,34.138 87.296,64.617c31.842,42.492 36.692,99.308 30.324,150.412c-16.137,96.961 -70.02,183.134 -134.637,255.38c-32.516,33.5 -64.497,68.208 -102.621,95.511c-0.19,-50.707 -2.607,-101.551 0.414,-152.189c17.017,-24.784 40.386,-44.459 57.662,-69.105c38.004,-51.328 72.176,-109.387 77.941,-174.401c3.9,-27.459 -3.038,-55.902 -17.794,-79.236c-21.47,-31.601 -58.767,-48.152 -95.701,-52.899c-69.967,-11.425 -140.038,8.285 -204.914,33.241c-111.355,45.616 -212.268,116.153 -293.799,204.622c-46.098,50.258 -85.569,108.731 -104.036,175.005c-5.903,25.509 -9.89,52.278 -4.764,78.304c4.729,22.955 22.42,44.891 46.703,47.635c40.645,8.284 78.476,-13.6 110.319,-36.002c62.58,-49.033 113.891,-110.526 163.787,-171.934c60.941,-77.423 119.121,-157.142 171.139,-240.882c0.604,167.929 0.604,335.824 -0,503.753c-102.104,57.955 -216.133,103.795 -335.444,101.224c-65.929,0.466 -136.069,-20.4 -180.632,-71.435c-30.496,-32.688 -41.335,-78.528 -42.681,-122.038c-1.105,-64.6 23.317,-126.525 53.969,-182.271c56.108,-95.58 136.155,-175.679 226.454,-239.14c82.911,-58.491 176.178,-103.709 275.572,-125.507Z" style="fill:#3643ba;fill-rule:nonzero;stroke:#3642b8;stroke-width:0.25px;"/><path d="M1948.94,646.165c53.745,-69.07 147.685,-95.787 232.115,-84.517c45.184,6.093 89.712,23.731 122.711,55.971c41.007,39.782 62.253,96.27 67.776,152.344c-44.494,0.277 -88.953,0.294 -133.377,0.104c-8.129,-27.58 -16.966,-57.282 -41.715,-74.783c-42.146,-25.526 -102.569,-17.604 -135.189,19.969c-18.311,19.606 -26.872,46.185 -30.255,72.315c-2.623,37.762 -5.35,77.423 8.216,113.581c10.717,27.89 27.717,55.642 55.28,69.467c44.39,23.213 100.844,20.969 143.352,-5.592c37.918,-23.748 66.654,-59.509 89.453,-97.479c62.322,-99.29 124.092,-198.926 186.914,-297.871c63.15,-0.035 126.301,-0.087 189.468,0.069c0.087,176.023 0.087,352.047 0,528.106c-44.2,0.103 -88.331,0.155 -132.496,0.034c-0.138,-32.24 -0.087,-64.445 -1.036,-96.633c-59.992,-0.725 -120.105,-2.519 -180.062,-0.034c-23.127,17.103 -40.42,41.024 -64.635,56.92c-40.057,27.769 -87.727,44.234 -136.31,47.617c-72.039,7.974 -148.996,-7.145 -206.71,-52.76c-39.057,-30.014 -64.721,-74.524 -79.167,-121.037c-25.819,-95.373 -17.328,-206.262 45.667,-285.791m502.648,248.46c39.8,0.241 79.581,0.172 119.415,0.051c-0.156,-63.564 0.897,-127.181 -0.863,-190.728c-40.869,62.684 -78.942,127.181 -118.552,190.677Z" style="fill:#3643ba;fill-rule:nonzero;stroke:#3642b8;stroke-width:0.25px;"/><path d="M1041.2,569.725c67.69,0.087 135.362,-0.431 203.086,0c76.802,0.397 156.4,31.619 202.982,94.7c31.411,42.768 47.03,95.269 50.154,147.875c3.538,56.315 -6.041,114.461 -33.206,164.356c-24.214,42.181 -61.355,77.579 -106.315,96.806c-42.836,20.59 -91.213,24.145 -138.019,24.49c-59.561,0.224 -119.138,-0.155 -178.682,-0.103c-0.086,-176.024 -0.103,-352.083 0,-528.124m135.966,114.479c-1.519,99.066 -0.242,198.15 -0.57,297.25c27.839,0.069 55.729,1.139 83.551,-1.087c32.74,-3.504 63.72,-23.593 78.51,-53.313c21.557,-36.33 23.818,-80.651 19.658,-121.658c-3.659,-36.347 -16.43,-74.489 -46.271,-97.651c-37.831,-29.996 -89.884,-24.525 -134.878,-23.541Z" style="fill:#3643ba;fill-rule:nonzero;stroke:#3642b8;stroke-width:0.25px;"/><path d="M1528.61,569.725c118.845,0.328 237.689,-0.983 356.517,0.674c1.156,37.658 0.966,75.335 0.828,112.994c-74.006,0.207 -148.012,-0.121 -222.001,0.103c-0.069,32.482 -0.069,64.928 0.017,97.444c64.963,0.138 129.943,-0.086 194.94,0.052c-0,35.191 0.086,70.399 -0.035,105.59c-64.98,0.138 -129.977,-0.086 -194.956,0.052c-0.035,31.584 -0,63.15 0.034,94.734c73.73,0.535 147.46,-0.863 221.19,0.777c1.226,38.28 1.191,76.595 0.121,114.892c-118.879,1.951 -237.776,0.397 -356.655,0.812c-0.086,-176.059 -0.104,-352.083 -0,-528.124Z" style="fill:#3643ba;fill-rule:nonzero;stroke:#3642b8;stroke-width:0.25px;"/><path d="M2738.97,569.691c133.584,-0.052 267.134,-0.052 400.717,-0c0.052,37.9 0.07,75.801 0,113.719c-44.251,0.086 -88.451,-0.017 -132.634,0.052c-0.173,138.157 0.086,276.281 -0.052,414.421c-45.149,0.069 -90.229,0.104 -135.31,-0.034c-0.19,-138.124 0.052,-276.247 -0.086,-414.387c-44.252,-0.069 -88.435,0.034 -132.635,-0.052c-0.103,-37.918 -0.103,-75.819 0,-113.719Z" style="fill:#3643ba;fill-rule:nonzero;stroke:#3642b8;stroke-width:0.25px;"/><path d="M3172.22,569.691c45.097,-0.104 90.177,-0.104 135.292,0.034c0.207,66.775 -0.086,133.567 0.138,200.342c61.321,0.138 122.659,0.121 184.049,0c0.155,-66.775 -0.138,-133.567 0.086,-200.376c45.046,-0.104 90.161,-0.104 135.276,0.034c0.086,176.041 0.086,352.065 -0,528.124c-45.115,0.138 -90.195,0.138 -135.258,-0c-0.587,-71.021 0.811,-142.059 -0.708,-213.062c-60.872,-1.501 -121.762,-1.381 -182.616,-0.121c-1.916,71.021 -0.397,142.093 -0.95,213.183c-44.838,-0 -89.642,0.707 -134.464,-0.57c-2.002,-175.868 -0.345,-351.72 -0.845,-527.588Z" style="fill:#3643ba;fill-rule:nonzero;stroke:#3642b8;stroke-width:0.25px;"/><path d="M3665.08,569.725c45.063,-0.138 90.16,-0.138 135.275,0c0.604,137.83 -0.897,275.677 0.708,413.542c68.345,1.846 136.742,0.396 205.139,0.914c0.086,37.625 0.276,75.232 -0.725,112.856c-113.46,1.951 -226.937,0.432 -340.397,0.812c-0.104,-176.059 -0.104,-352.083 -0,-528.124Z" style="fill:#3643ba;fill-rule:nonzero;stroke:#3642b8;stroke-width:0.25px;"/><path d="M4240.2,559.991c78.114,-5.436 160.56,19.831 214.994,77.907c55.643,59.543 74.248,144.854 68.207,224.297c-4.78,79.857 -43.458,161.026 -112.838,204.121c-81.773,50.88 -189.71,54.539 -276.816,15.033c-46.133,-22.316 -85.19,-59.612 -108.558,-105.314c-27.649,-50.068 -33.81,-109.042 -32.24,-165.306c3.728,-68.363 30.721,-136.656 80.737,-184.394c45.27,-41.335 105.711,-63.254 166.514,-66.344m0.069,122.125c-36.278,2.865 -69.605,24.386 -87.433,55.97c-24.232,43.199 -25.906,95.666 -17,143.422c5.712,32.378 21.418,64.566 49.274,83.412c36.968,26.924 87.709,26.665 129.01,10.407c42.733,-18.173 65.877,-64.358 69.933,-108.765c4.453,-51.173 1.174,-109.525 -34.708,-149.929c-27.372,-29.53 -70.105,-40.265 -109.076,-34.517Z" style="fill:#3643ba;fill-rule:nonzero;stroke:#3642b8;stroke-width:0.25px;"/><path d="M4555.95,569.743c46.599,-0.19 93.232,-0.346 139.866,0.31c57.748,95.908 115.082,192.144 173.452,287.707c1.657,-96.012 0.224,-192.04 0.794,-288.069c43.233,-0.069 86.57,-0.104 129.89,-0c0.035,176.058 0.086,352.099 -0.017,528.158c-44.148,0.103 -88.228,0.224 -132.29,-0.052c-60.078,-100.672 -119.569,-201.688 -181.287,-301.307c-1.156,100.447 -0.104,200.912 -0.535,301.393c-43.337,0.069 -86.623,0.104 -129.891,0c-0.069,-176.058 -0.086,-352.082 0.018,-528.14Z" style="fill:#3643ba;fill-rule:nonzero;stroke:#3642b8;stroke-width:0.25px;"/></g></svg>