<?xml version="1.0" encoding="UTF-8" standalone="no"?><!DOCTYPE svg PUBLIC "-//W3C//DTD SVG 1.1//EN" "http://www.w3.org/Graphics/SVG/1.1/DTD/svg11.dtd"><svg width="100%" height="100%" viewBox="0 0 2292 2292" version="1.1" xmlns="http://www.w3.org/2000/svg" xmlns:xlink="http://www.w3.org/1999/xlink" xml:space="preserve" xmlns:serif="http://www.serif.com/" style="fill-rule:evenodd;clip-rule:evenodd;"><rect id="logo-mark-white" x="0" y="0" width="2291.67" height="2291.67" style="fill:none;"/><clipPath id="_clip1"><rect x="0" y="0" width="2291.67" height="2291.67"/></clipPath><g clip-path="url(#_clip1)"><path d="M1429.28,208.918c182.159,-36.024 377.184,-49.155 553.797,18.855c86.022,36.556 170.225,87.752 224.394,166.1c81.852,109.224 94.318,255.271 77.948,386.634c-41.481,249.238 -179.986,470.748 -346.085,656.457c-83.582,86.111 -165.789,175.327 -263.789,245.511c-0.488,-130.342 -6.699,-261.039 1.065,-391.203c43.743,-63.707 103.812,-114.282 148.22,-177.634c97.69,-131.94 185.531,-281.181 200.349,-448.301c10.026,-70.583 -7.808,-143.696 -45.74,-203.676c-55.189,-81.231 -151.06,-123.776 -245.999,-135.976c-179.852,-29.369 -359.971,21.295 -526.735,85.445c-286.238,117.255 -545.635,298.571 -755.211,525.982c-118.497,129.189 -219.958,279.495 -267.427,449.853c-15.173,65.571 -25.421,134.38 -12.245,201.281c12.156,59.004 57.629,115.391 120.05,122.445c104.477,21.295 201.723,-34.959 283.575,-92.544c160.865,-126.038 292.759,-284.108 421.016,-441.956c156.65,-199.018 306.201,-403.936 439.915,-619.191c1.553,431.664 1.553,863.239 -0,1294.9c-262.458,148.975 -555.572,266.807 -862.262,260.196c-169.471,1.198 -349.767,-52.438 -464.315,-183.623c-78.391,-84.026 -106.252,-201.857 -109.712,-313.699c-2.84,-166.056 59.936,-325.234 138.726,-468.531c144.228,-245.689 349.989,-451.583 582.102,-614.71c213.126,-150.351 452.869,-266.585 708.363,-322.617Z" style="fill:#fff;fill-rule:nonzero;stroke:#3642b8;stroke-width:0.65px;"/></g></svg>