<?xml version="1.0" encoding="UTF-8" standalone="no"?><!DOCTYPE svg PUBLIC "-//W3C//DTD SVG 1.1//EN" "http://www.w3.org/Graphics/SVG/1.1/DTD/svg11.dtd"><svg width="100%" height="100%" viewBox="0 0 5000 1667" version="1.1" xmlns="http://www.w3.org/2000/svg" xmlns:xlink="http://www.w3.org/1999/xlink" xml:space="preserve" xmlns:serif="http://www.serif.com/" style="fill-rule:evenodd;clip-rule:evenodd;"><rect id="wordmark" x="0" y="0" width="5000" height="1666.67" style="fill:none;"/><clipPath id="_clip1"><rect x="0" y="0" width="5000" height="1666.67"/></clipPath><g clip-path="url(#_clip1)"><path d="M1163.6,597.624c67.578,-86.849 185.699,-120.442 291.862,-106.271c56.814,7.66 112.803,29.839 154.296,70.377c51.563,50.022 78.277,121.051 85.222,191.559c-55.946,0.347 -111.849,0.369 -167.709,0.13c-10.221,-34.679 -21.332,-72.027 -52.452,-94.032c-52.994,-32.097 -128.971,-22.136 -169.987,25.108c-23.025,24.653 -33.789,58.073 -38.042,90.929c-3.299,47.483 -6.728,97.353 10.33,142.817c13.476,35.069 34.852,69.965 69.509,87.348c55.816,29.189 126.801,26.367 180.252,-7.031c47.678,-29.861 83.811,-74.827 112.478,-122.57c78.364,-124.848 156.033,-250.13 235.026,-374.544c79.405,-0.044 158.811,-0.109 238.238,0.087c0.108,221.332 0.108,442.665 -0,664.041c-55.578,0.13 -111.068,0.195 -166.602,0.043c-0.173,-40.538 -0.108,-81.033 -1.302,-121.506c-75.434,-0.911 -151.02,-3.168 -226.41,-0.043c-29.08,21.506 -50.825,51.584 -81.272,71.571c-50.369,34.918 -110.308,55.621 -171.397,59.874c-90.582,10.026 -187.348,-8.984 -259.918,-66.341c-49.11,-37.739 -81.38,-93.707 -99.544,-152.192c-32.465,-119.922 -21.788,-259.354 57.422,-359.354m632.031,312.414c50.043,0.304 100.065,0.217 150.151,0.065c-0.195,-79.926 1.129,-159.918 -1.085,-239.822c-51.388,78.819 -99.262,159.917 -149.066,239.757Z" style="fill:#3643ba;fill-rule:nonzero;stroke:#3642b8;stroke-width:0.26px;"/><path d="M4044.63,489.269c98.22,-6.836 201.888,24.935 270.334,97.96c69.965,74.87 93.359,182.14 85.763,282.032c-6.011,100.412 -54.644,202.474 -141.883,256.662c-102.821,63.976 -238.542,68.577 -348.068,18.902c-58.008,-28.06 -107.118,-74.956 -136.502,-132.422c-34.766,-62.955 -42.513,-137.109 -40.538,-207.856c4.687,-85.959 38.628,-171.831 101.519,-231.858c56.923,-51.974 132.921,-79.535 209.375,-83.42m0.086,153.559c-45.616,3.603 -87.521,30.665 -109.939,70.378c-30.468,54.319 -32.573,120.291 -21.376,180.339c7.184,40.712 26.932,81.185 61.958,104.883c46.484,33.854 110.286,33.528 162.218,13.086c53.732,-22.852 82.834,-80.925 87.934,-136.763c5.599,-64.344 1.475,-137.717 -43.642,-188.52c-34.418,-37.131 -88.151,-50.629 -137.153,-43.403Z" style="fill:#3643ba;fill-rule:nonzero;stroke:#3642b8;stroke-width:0.21px;"/><path d="M22.192,501.509c85.113,0.108 170.204,-0.543 255.361,-0c96.571,0.499 196.657,39.757 255.229,119.075c39.497,53.777 59.137,119.792 63.065,185.938c4.448,70.812 -7.596,143.924 -41.754,206.663c-30.447,53.038 -77.148,97.547 -133.68,121.723c-53.863,25.89 -114.692,30.36 -173.546,30.794c-74.892,0.282 -149.805,-0.195 -224.675,-0.13c-0.108,-221.333 -0.13,-442.709 0,-664.063m170.964,143.945c-1.91,124.566 -0.304,249.154 -0.716,373.764c35.004,0.086 70.073,1.432 105.056,-1.368c41.168,-4.405 80.122,-29.665 98.72,-67.035c27.105,-45.682 29.948,-101.411 24.718,-152.973c-4.601,-45.704 -20.66,-93.664 -58.182,-122.787c-47.569,-37.717 -113.021,-30.838 -169.596,-29.601Z" style="fill:#3643ba;fill-rule:nonzero;stroke:#3642b8;stroke-width:0.19px;"/><path d="M635.061,501.509c149.436,0.412 298.871,-1.237 448.285,0.846c1.454,47.353 1.215,94.727 1.042,142.079c-93.056,0.261 -186.111,-0.152 -279.145,0.131c-0.087,40.842 -0.087,81.64 0.022,122.526c81.684,0.173 163.389,-0.109 245.117,0.065c-0,44.249 0.108,88.52 -0.044,132.769c-81.705,0.174 -163.433,-0.109 -245.138,0.065c-0.044,39.714 -0,79.406 0.043,119.119c92.708,0.673 185.417,-1.085 278.125,0.977c1.541,48.133 1.497,96.31 0.152,144.466c-149.479,2.452 -298.98,0.499 -448.459,1.02c-0.109,-221.376 -0.13,-442.709 -0,-664.063Z" style="fill:#3643ba;fill-rule:nonzero;stroke:#3642b8;stroke-width:0.17px;"/><path d="M2156.98,501.465c167.969,-0.065 335.894,-0.065 503.863,0c0.065,47.657 0.086,95.313 -0,142.991c-55.643,0.109 -111.22,-0.022 -166.775,0.065c-0.217,173.72 0.108,347.396 -0.065,521.094c-56.771,0.087 -113.455,0.13 -170.139,-0.043c-0.239,-173.676 0.065,-347.353 -0.109,-521.051c-55.642,-0.087 -111.198,0.044 -166.775,-0.065c-0.13,-47.678 -0.13,-95.334 0,-142.991Z" style="fill:#3643ba;fill-rule:nonzero;stroke:#3642b8;stroke-width:0.18px;"/><path d="M2701.75,501.465c56.705,-0.13 113.389,-0.13 170.117,0.044c0.26,83.963 -0.109,167.947 0.173,251.91c77.105,0.173 154.232,0.152 231.424,-0c0.195,-83.963 -0.174,-167.947 0.108,-251.954c56.641,-0.13 113.368,-0.13 170.096,0.044c0.108,221.354 0.108,442.687 -0,664.063c-56.728,0.173 -113.412,0.173 -170.074,-0c-0.738,-89.301 1.02,-178.624 -0.89,-267.904c-76.54,-1.888 -153.103,-1.736 -229.622,-0.152c-2.409,89.301 -0.499,178.668 -1.193,268.056c-56.381,-0 -112.717,0.89 -169.076,-0.716c-2.517,-221.138 -0.434,-442.253 -1.063,-663.391Z" style="fill:#3643ba;fill-rule:nonzero;stroke:#3642b8;stroke-width:0.19px;"/><path d="M3321.47,501.509c56.662,-0.174 113.368,-0.174 170.095,-0c0.76,173.307 -1.128,346.636 0.89,519.987c85.937,2.322 171.94,0.499 257.942,1.15c0.109,47.309 0.348,94.597 -0.911,141.906c-142.665,2.452 -285.351,0.542 -428.016,1.02c-0.13,-221.376 -0.13,-442.709 -0,-664.063Z" style="fill:#3643ba;fill-rule:nonzero;stroke:#3642b8;stroke-width:0.17px;"/><path d="M4441.65,501.531c58.594,-0.239 117.231,-0.434 175.868,0.39c72.613,120.595 144.705,241.602 218.099,361.763c2.083,-120.725 0.282,-241.472 0.998,-362.219c54.362,-0.086 108.854,-0.13 163.325,0c0.043,221.377 0.108,442.731 -0.022,664.107c-55.512,0.13 -110.937,0.282 -166.341,-0.065c-75.542,-126.585 -150.347,-253.603 -227.951,-378.863c-1.454,126.302 -0.13,252.626 -0.673,378.971c-54.492,0.087 -108.919,0.13 -163.324,0c-0.087,-221.376 -0.109,-442.708 0.021,-664.084Z" style="fill:#3643ba;fill-rule:nonzero;stroke:#3642b8;stroke-width:0.19px;"/></g></svg>