<?xml version="1.0" encoding="UTF-8" standalone="no"?><!DOCTYPE svg PUBLIC "-//W3C//DTD SVG 1.1//EN" "http://www.w3.org/Graphics/SVG/1.1/DTD/svg11.dtd"><svg width="100%" height="100%" viewBox="0 0 5000 1667" version="1.1" xmlns="http://www.w3.org/2000/svg" xmlns:xlink="http://www.w3.org/1999/xlink" xml:space="preserve" xmlns:serif="http://www.serif.com/" style="fill-rule:evenodd;clip-rule:evenodd;stroke-linejoin:round;stroke-miterlimit:2;"><rect id="logo-full-color" x="0" y="0" width="5000" height="1666.67" style="fill:none;"/><clipPath id="_clip1"><rect x="0" y="0" width="5000" height="1666.67"/></clipPath><g clip-path="url(#_clip1)"><g><path d="M1410.43,1034.3c-6.898,-6.536 -12.072,-13.933 -15.521,-22.193c-3.45,-8.26 -5.174,-15.431 -5.174,-21.513c-0,-6.081 1.634,-13.297 4.901,-21.648c3.268,-8.351 7.716,-18.018 13.344,-29.001c5.627,-10.983 12.163,-22.965 19.606,-35.945c7.443,-12.98 15.431,-26.096 23.963,-39.348l25.597,-39.485c8.895,-12.889 17.609,-24.871 26.141,-35.945c-36.307,11.619 -63.22,22.92 -80.739,33.903c-17.518,10.983 -30.998,19.016 -40.438,24.099c-9.44,5.083 -17.246,7.625 -23.418,7.625c-10.166,-0 -15.25,-6.354 -15.25,-19.062c0,-18.154 9.44,-40.483 28.32,-66.988c19.607,-27.412 39.894,-44.386 60.861,-50.921c20.968,-6.536 44.387,-12.754 70.256,-18.654c25.869,-5.9 52.782,-11.028 80.739,-15.385c60.634,-9.44 117.002,-14.16 169.104,-14.16c59.545,0 97.577,5.628 114.097,16.883c14.705,9.985 24.689,23.782 29.954,41.391c2.542,8.532 3.812,17.7 3.812,27.503c0,9.803 -4.765,20.015 -14.296,30.635c-9.531,10.62 -22.193,20.65 -37.987,30.09c-29.772,18.154 -68.803,34.492 -117.092,49.015c27.412,5.265 46.428,11.301 57.048,18.109c10.62,6.808 18.109,13.615 22.466,20.423c4.356,6.808 6.535,15.431 6.535,25.869c-0,10.439 -4.539,21.195 -13.615,32.269c-9.077,11.074 -21.649,21.421 -37.715,31.043c-16.066,9.622 -35.037,18.335 -56.913,26.142c-21.875,7.806 -45.611,14.432 -71.208,19.878c-53.373,11.619 -108.924,17.428 -166.653,17.428c-25.052,-0 -45.294,-7.352 -60.725,-22.057Zm151.676,-204.504c-27.231,47.2 -40.846,79.877 -40.846,98.031c-0,8.351 4.357,16.157 13.071,23.419c8.169,6.898 16.701,10.348 25.597,10.348c8.895,-0 18.698,-0.409 29.409,-1.226c10.711,-0.817 21.694,-1.951 32.949,-3.404c11.256,-1.452 22.329,-3.177 33.222,-5.174c10.892,-1.996 20.604,-4.266 29.137,-6.807c18.88,-5.628 28.32,-11.346 28.32,-17.156c-0,-10.529 -14.614,-19.243 -43.842,-26.141c-23.781,-5.446 -46.474,-8.17 -68.077,-8.17c-8.351,0 -14.341,-1.679 -17.972,-5.037c-3.631,-3.359 -5.446,-7.262 -5.446,-11.709c-0,-4.448 2.223,-9.077 6.671,-13.888c4.448,-4.811 10.484,-8.759 18.109,-11.846c61.723,-15.43 113.28,-32.767 154.671,-52.011c20.332,-9.44 30.498,-16.61 30.498,-21.512c0,-7.08 -2.087,-12.798 -6.263,-17.155c-7.443,-7.806 -15.703,-11.71 -24.78,-11.71c-9.077,0 -19.424,0.364 -31.043,1.09c-11.618,0.726 -24.145,1.815 -37.579,3.267c-29.59,2.905 -58.909,7.08 -87.955,12.527c-4.175,8.532 -9.712,18.153 -16.611,28.864l-21.24,35.4Zm591.268,141.803c-6.032,5.225 -12.234,10.423 -18.603,15.592c-51.739,41.39 -97.941,62.086 -138.605,62.086c-29.228,-0 -53.191,-12.708 -71.89,-38.123c-19.425,-26.505 -29.137,-62.087 -29.137,-106.745c0,-58.637 28.593,-123.447 85.777,-194.428c36.308,-45.204 70.528,-75.884 102.661,-92.041c9.984,-5.083 17.654,-7.624 23.01,-7.624c5.355,-0 10.257,0.862 14.704,2.587c4.448,1.724 8.578,4.13 12.39,7.216c8.896,7.443 13.343,16.429 13.343,26.958c0,10.53 -2.904,23.01 -8.713,37.443c-5.81,14.432 -14.251,29.818 -25.325,46.156c-23.419,34.674 -55.097,67.896 -95.036,99.665c-10.347,19.788 -15.521,43.569 -15.521,71.345c-0,12.526 3.993,24.326 11.981,35.4c8.169,11.074 17.156,16.611 26.959,16.611c13.434,-0 39.121,-13.888 77.063,-41.664l48.471,-37.306c4.777,-3.812 9.458,-7.165 14.046,-10.058c4.492,-7.32 9.523,-14.588 15.091,-21.802c9.077,-11.618 19.243,-21.785 30.498,-30.498c24.327,-15.25 50.105,-22.874 77.336,-22.874c11.982,-0 20.514,3.721 25.597,11.164c1.997,2.905 2.995,6.672 2.995,11.301c0,4.629 -1.316,9.985 -3.948,16.066c-2.632,6.082 -5.855,12.436 -9.667,19.062c-3.812,6.626 -8.033,13.479 -12.662,20.559c-4.63,7.08 -8.85,13.979 -12.663,20.696c-9.077,15.975 -13.615,27.457 -13.615,34.447c-0,6.989 1.997,12.117 5.991,15.385c3.993,3.268 8.895,4.902 14.704,4.902c12.89,-0 23.873,-3.132 32.95,-9.395c9.077,-6.263 18.063,-13.479 26.958,-21.649l25.597,-25.052l24.78,-25.597c17.609,-17.972 30.998,-29.182 40.166,-33.63c9.167,-4.448 15.839,-6.127 20.014,-5.038c4.176,1.09 8.442,3.041 12.799,5.855c4.357,2.814 8.623,6.218 12.798,10.212c9.803,9.44 15.25,17.972 16.339,25.596c0.363,4.902 -0.046,12.209 -1.226,21.921c-1.18,9.713 -1.77,16.384 -1.77,20.015c0,18.335 8.079,27.503 24.236,27.503c16.157,0 44.114,-15.521 83.871,-46.565l8.919,-7.297c7.21,-8.015 15.493,-15.93 24.847,-23.746c35.219,-29.409 76.7,-52.192 124.445,-68.349c29.046,-9.803 53.645,-14.705 73.796,-14.705c16.338,0 30.135,3.994 41.39,11.982c11.982,8.714 17.973,20.423 17.973,35.128c-0,23.055 -18.245,48.561 -54.734,76.518c-5.809,4.539 -11.074,8.351 -15.794,11.437l-9.803,6.536c-18.154,12.707 -45.748,26.958 -82.782,42.752c11.437,5.991 22.102,8.986 31.996,8.986c9.894,0 18.79,-1.18 26.687,-3.54c7.896,-2.36 16.837,-5.718 26.822,-10.075c9.985,-4.357 20.65,-9.576 31.996,-15.658c11.346,-6.082 22.829,-12.753 34.447,-20.015c18.813,-11.709 35.815,-23.608 51.004,-35.698c0.935,-1.989 1.906,-3.977 2.913,-5.965c21.422,-42.48 51.194,-70.982 89.317,-85.505c12.708,-4.901 23.555,-7.352 32.541,-7.352c8.986,-0 16.021,0.408 21.104,1.225c5.083,0.817 9.712,2.315 13.888,4.493c9.803,4.902 14.704,12.708 14.704,23.419c0,9.258 -3.812,19.152 -11.437,29.682c-7.624,10.529 -14.16,19.061 -19.606,25.597c-5.446,6.535 -10.438,13.161 -14.977,19.878c-10.71,15.612 -16.066,29.137 -16.066,40.574c0,8.351 5.537,12.526 16.611,12.526c17.246,0 44.295,-17.064 81.148,-51.194c7.624,-25.778 19.878,-47.744 36.761,-65.898c18.881,-20.333 39.757,-30.499 62.631,-30.499c19.244,0 32.314,4.448 39.213,13.343c2.36,2.905 3.54,5.673 3.54,8.306c-0,2.632 -1.543,6.399 -4.629,11.3l-26.142,40.847c-20.332,31.769 -30.499,55.551 -30.499,71.344c0,13.979 8.533,20.968 25.597,20.968c12.89,0 35.854,-16.066 68.894,-48.198c-1.27,-4.902 -1.906,-9.894 -1.906,-14.977c0,-5.083 1.226,-10.711 3.676,-16.883c2.451,-6.173 5.855,-12.708 10.212,-19.607c4.357,-6.898 9.44,-13.797 15.249,-20.695c5.809,-6.899 12.073,-13.162 18.79,-18.789c15.067,-12.345 29.318,-18.517 42.752,-18.517c24.508,-0 36.762,12.435 36.762,37.306c-0,15.794 -4.539,32.314 -13.616,49.56c0,5.628 3.086,10.438 9.259,14.432c1.815,1.271 4.402,1.907 7.76,1.907c3.359,-0 7.761,-1.453 13.207,-4.357c4.275,-2.28 8.549,-4.895 12.823,-7.846c1.133,-1.206 2.306,-2.404 3.516,-3.591c27.775,-27.231 71.617,-52.193 131.525,-74.885c56.64,-21.24 102.388,-31.86 137.243,-31.86c11.8,-0 17.7,5.809 17.7,17.427c0,7.988 -1.543,13.979 -4.629,17.973c-3.086,3.994 -9.44,8.078 -19.062,12.254l-34.31,14.704c-50.831,21.24 -88.047,43.297 -111.647,66.171c-6.717,6.354 -10.075,12.526 -10.075,18.517c-0,5.991 4.811,8.986 14.432,8.986c9.44,0 31.406,-10.166 65.899,-30.498l22.601,-13.343c35.037,-21.059 64.356,-31.588 87.956,-31.588c19.969,0 33.222,8.805 39.757,26.414c1.634,4.72 3.177,9.485 4.629,14.296c1.452,4.811 2.905,9.122 4.357,12.935c3.268,8.895 6.218,13.343 8.85,13.343c2.632,-0 6.399,-1.316 11.301,-3.949c4.901,-2.632 10.302,-5.99 16.202,-10.075c5.9,-4.085 12.027,-8.578 18.381,-13.479l28.945,-23.204c4.49,-15.786 11.361,-31.015 20.615,-45.69c12.889,-20.514 29.954,-35.219 51.194,-44.114c10.711,-4.539 20.877,-6.808 30.499,-6.808c9.621,0 17.564,0.499 23.827,1.498c6.263,0.998 12.027,2.496 17.291,4.493c12.163,4.538 18.245,10.348 18.245,17.428c-0,8.35 -2.905,16.338 -8.714,23.963c-5.809,7.624 -10.892,13.797 -15.249,18.517l-12.526,13.615c-10.167,10.711 -16.43,18.426 -18.79,23.146c-3.63,7.443 -5.446,15.658 -5.446,24.644c0,8.986 0.817,16.157 2.451,21.513c1.634,5.355 3.812,10.211 6.535,14.568c5.81,9.803 11.71,14.705 17.7,14.705c8.351,-0 26.051,-12.345 53.101,-37.034l23.963,-22.057c-0.727,-3.631 -1.09,-7.716 -1.09,-12.254c0,-4.539 1.271,-10.075 3.813,-16.611c2.541,-6.535 6.036,-13.434 10.484,-20.695c4.447,-7.262 9.712,-14.523 15.793,-21.785c6.082,-7.262 12.572,-13.888 19.471,-19.878c15.43,-13.071 30.044,-19.607 43.841,-19.607c24.508,0 36.762,12.799 36.762,38.396c-0,15.975 -4.539,33.04 -13.616,51.194c0,6.717 3.631,12.344 10.893,16.883c2.178,1.452 4.856,2.178 8.033,2.178c3.177,0 6.853,-1.27 11.028,-3.812c4.176,-2.542 8.351,-5.537 12.526,-8.986l11.43,-9.835c6.33,-6.685 13.413,-13.301 21.247,-19.847c35.219,-29.409 76.701,-52.192 124.445,-68.349c29.047,-9.803 53.645,-14.705 73.796,-14.705c16.338,0 30.135,3.994 41.391,11.982c11.981,8.714 17.972,20.423 17.972,35.128c0,23.055 -18.244,48.561 -54.734,76.518c-5.809,4.539 -11.074,8.351 -15.794,11.437l-9.803,6.536c-18.154,12.707 -45.748,26.958 -82.782,42.752c11.437,5.991 22.103,8.986 31.997,8.986c9.894,0 18.789,-1.18 26.686,-3.54c7.897,-2.36 16.838,-5.718 26.822,-10.075c9.985,-4.357 20.65,-9.576 31.997,-15.658c11.346,-6.082 22.828,-12.753 34.447,-20.015c16.173,-10.065 31.007,-20.272 44.499,-30.618c2.714,-3.162 6.397,-6.571 11.051,-10.228c6.281,-4.935 11.505,-8.917 15.673,-11.946c4.485,-3.713 9.454,-7.087 14.91,-10.123c1.226,-0.847 2.378,-1.66 3.456,-2.439l28.865,-19.606c-0,-18.517 10.71,-35.491 32.132,-50.922c20.332,-14.523 40.483,-21.784 60.453,-21.784c12.707,-0 22.057,6.172 28.047,18.517c1.816,3.631 2.723,8.396 2.723,14.296c0,5.9 -2.995,12.571 -8.986,20.015c4.72,4.901 10.756,10.574 18.109,17.019c7.352,6.444 14.477,13.479 21.376,21.104c16.701,18.698 25.052,36.58 25.052,53.645c0,11.255 -7.715,24.961 -23.146,41.118c-4.72,5.083 -9.894,9.803 -15.522,14.16c18.881,-7.261 41.573,-21.694 68.078,-43.297l31.86,-26.142c18.517,-15.43 30.907,-24.326 37.17,-26.686c6.263,-2.36 11.936,-3.54 17.019,-3.54c5.083,0 10.03,1.271 14.841,3.813c4.811,2.541 7.216,6.671 7.216,12.39c-0,5.718 -0.908,11.255 -2.723,16.61c-1.815,5.356 -3.994,10.303 -6.535,14.841c-3.631,6.536 -8.896,13.253 -15.794,20.151c-19.062,17.972 -37.534,34.447 -55.415,49.424c-17.882,14.977 -36.353,27.821 -55.415,38.532c-40.302,22.51 -84.96,33.766 -133.976,33.766c-27.412,-0 -51.194,-6.989 -71.344,-20.968c-8.351,-5.809 -14.75,-11.845 -19.198,-18.108c-4.448,-6.263 -6.672,-11.165 -6.672,-14.705c0,-3.54 1.18,-7.262 3.54,-11.165c2.36,-3.903 5.537,-7.942 9.531,-12.117c3.994,-4.176 8.578,-8.351 13.752,-12.527c5.174,-4.175 10.484,-7.897 15.93,-11.164c12.707,-7.443 22.193,-11.165 28.456,-11.165c6.263,0 11.028,0.772 14.296,2.315c3.268,1.543 6.263,3.222 8.986,5.037c7.443,5.084 12.708,7.625 15.794,7.625c7.443,0 11.165,-5.083 11.165,-15.249c-0,-9.44 -4.992,-20.786 -14.977,-34.039c-3.994,-5.446 -8.169,-10.801 -12.526,-16.066c-4.357,-5.265 -7.988,-10.438 -10.893,-15.521c-5.809,6.716 -13.07,13.615 -21.784,20.695l-26.414,22.329c-1.348,1.161 -2.688,2.277 -4.024,3.351c-6.436,6.257 -13.491,12.674 -21.165,19.251c-10.801,9.258 -23.418,18.971 -37.851,29.137c-14.432,10.166 -30.362,20.241 -47.79,30.226c-17.427,9.985 -35.944,18.971 -55.551,26.959c-43.387,17.79 -85.414,26.686 -126.078,26.686c-31.044,-0 -58.184,-8.079 -81.421,-24.236c-21.823,-15.146 -33.857,-33.213 -36.102,-54.202c-9.831,2.369 -21.533,3.553 -35.106,3.553c-14.796,-0 -30.998,-5.083 -48.607,-15.249c-26.686,23.418 -50.74,41.572 -72.162,54.461c-37.579,22.511 -63.266,33.767 -77.063,33.767c-23.782,-0 -42.843,-3.903 -57.185,-11.71c-25.102,-14.17 -40.873,-38.423 -47.314,-72.76c-35.717,31.255 -69.778,52.966 -102.183,65.136c-25.779,9.621 -44.296,9.167 -55.551,-1.362c-9.259,-8.895 -16.611,-23.237 -22.057,-43.025l-6.536,-23.69l-58.001,35.672l-33.494,19.062c-39.939,21.784 -69.893,32.677 -89.862,32.677c-25.597,-0 -46.928,-9.894 -63.992,-29.682c-11.146,-12.756 -18.491,-26.906 -22.032,-42.449c-10.777,3.066 -23.494,4.598 -38.149,4.598c-14.704,0 -30.407,-4.72 -47.109,-14.16c-41.572,37.942 -79.877,64.628 -114.914,80.059c-10.892,4.72 -19.062,7.08 -24.508,7.08c-5.446,-0 -10.62,-0.363 -15.521,-1.089c-4.902,-0.727 -9.713,-1.634 -14.433,-2.724c-11.437,-2.904 -18.97,-5.582 -22.601,-8.033c-3.631,-2.45 -7.353,-5.763 -11.165,-9.939c-3.812,-4.175 -7.261,-9.44 -10.348,-15.794c-7.08,-13.978 -11.618,-32.223 -13.615,-54.734c-43.932,38.85 -70.755,61.542 -80.467,68.077c-9.712,6.536 -17.746,11.256 -24.099,14.16c-11.619,5.447 -24.1,8.17 -37.443,8.17c-13.343,-0 -24.961,-2.905 -34.855,-8.714c-9.894,-5.809 -18.29,-13.162 -25.189,-22.057c-11.814,-15.449 -18.699,-32.224 -20.656,-50.326c-12.714,8.672 -26.524,17.278 -41.43,25.818c-17.428,9.985 -35.945,18.971 -55.551,26.959c-43.388,17.79 -85.414,26.686 -126.079,26.686c-31.043,-0 -58.183,-8.079 -81.42,-24.236c-16.936,-11.754 -27.976,-25.268 -33.121,-40.539l-0.918,0.646c-12.526,8.805 -25.143,16.838 -37.85,24.099c-28.684,16.702 -52.284,25.053 -70.801,25.053c-22.147,-0 -39.484,-7.806 -52.01,-23.419c-11.8,-14.523 -18.427,-33.947 -19.879,-58.274c-32.677,33.585 -67.26,59.454 -103.749,77.608c-22.33,11.074 -41.21,16.611 -56.641,16.611c-15.43,0 -28.955,-1.861 -40.574,-5.582c-11.618,-3.722 -21.784,-9.304 -30.498,-16.747c-16.063,-13.438 -25.293,-31.343 -27.689,-53.715Zm563.592,-51.941l14.977,-7.625c4.901,-2.541 9.258,-4.901 13.071,-7.08c36.67,-21.058 57.547,-34.038 62.63,-38.94c5.084,-4.901 7.625,-8.305 7.625,-10.211c0,-1.906 -0.545,-4.13 -1.634,-6.672c-1.089,-2.541 -2.541,-4.811 -4.357,-6.807c-4.357,-5.084 -8.986,-7.625 -13.887,-7.625c-4.902,-0 -10.303,0.908 -16.203,2.723c-5.9,1.815 -11.845,4.312 -17.836,7.488c-5.991,3.177 -11.755,6.99 -17.292,11.437c-5.536,4.448 -10.393,9.213 -14.568,14.297c-9.622,11.437 -14.432,21.33 -14.432,29.681c-0,8.351 0.635,14.796 1.906,19.334Zm1666.8,0l14.977,-7.625c4.902,-2.541 9.259,-4.901 13.071,-7.08c36.671,-21.058 57.548,-34.038 62.631,-38.94c5.083,-4.901 7.625,-8.305 7.625,-10.211c-0,-1.906 -0.545,-4.13 -1.634,-6.672c-1.09,-2.541 -2.542,-4.811 -4.357,-6.807c-4.357,-5.084 -8.986,-7.625 -13.888,-7.625c-4.902,-0 -10.302,0.908 -16.202,2.723c-5.9,1.815 -11.846,4.312 -17.837,7.488c-5.99,3.177 -11.754,6.99 -17.291,11.437c-5.537,4.448 -10.393,9.213 -14.569,14.297c-9.621,11.437 -14.432,21.33 -14.432,29.681c0,8.351 0.635,14.796 1.906,19.334Z" style="fill:#191919;fill-rule:nonzero;"/><path d="M889.826,453.393c0.948,-2.63 3.172,-4.595 5.898,-5.213c2.727,-0.619 5.58,0.194 7.571,2.157c99.28,98.8 160.994,236.88 160.994,389.575c0,256.659 -174.36,472.028 -408.546,529.045c-20.889,5.016 -42.846,-1.837 -57.173,-17.845c-14.328,-16.007 -18.714,-38.586 -11.423,-58.794c-0.022,-0.009 -0.022,-0.009 -0.022,-0.01c3.582,-9.925 12.645,-16.831 23.165,-17.651c226.489,-18.535 404.885,-212.496 404.885,-448.703c-0,-114.855 -42.18,-219.721 -111.563,-299.295c-17.567,-20.102 -22.844,-48.152 -13.783,-73.263c-0.004,-0.002 -0.003,-0.002 -0.003,-0.003Zm-428.733,867.371c-11.901,32.983 -47.626,50.788 -81.127,40.432c-219.629,-67.01 -379.966,-275.163 -379.966,-521.284c-0,-300.142 238.446,-543.819 532.145,-543.819c95.625,-0 185.392,25.832 263.007,71.05c4.796,2.815 6.904,8.648 5.017,13.879c0.004,0.002 0.004,0.002 0.004,0.002c-4.29,11.889 -13.243,21.514 -24.791,26.651c-11.548,5.138 -24.692,5.344 -36.395,0.57c-50.768,-20.96 -106.244,-32.474 -164.331,-32.474c-243.129,0 -440.519,201.72 -440.519,450.183c0,196.04 122.883,362.981 294.142,424.695c28.374,10.347 43.033,41.694 32.783,70.103c0.031,0.011 0.031,0.011 0.031,0.012Zm-94.021,-250.78c-6.528,-8.778 -11.424,-18.715 -14.687,-29.81c-3.264,-11.095 -4.896,-20.727 -4.896,-28.896c0,-8.169 1.546,-17.862 4.638,-29.079c3.092,-11.218 7.301,-24.203 12.626,-38.955c5.325,-14.753 11.509,-30.847 18.551,-48.283c7.043,-17.435 14.601,-35.053 22.675,-52.854l24.22,-53.038c8.417,-17.313 16.663,-33.407 24.736,-48.282c-34.355,15.607 -59.821,30.786 -76.397,45.539c-16.577,14.753 -29.331,25.543 -38.264,32.371c-8.932,6.828 -16.318,10.242 -22.159,10.242c-9.619,-0 -14.429,-8.535 -14.429,-25.604c0,-24.385 8.932,-54.379 26.797,-89.981c18.552,-36.821 37.748,-59.621 57.588,-68.4c19.84,-8.778 41.999,-17.13 66.478,-25.055c24.478,-7.925 49.944,-14.814 76.397,-20.667c57.373,-12.68 110.71,-19.02 160.01,-19.02c56.342,0 92.329,7.559 107.961,22.678c13.914,13.412 23.362,31.944 28.343,55.598c2.405,11.461 3.607,23.775 3.607,36.943c0,13.168 -4.509,26.885 -13.527,41.15c-9.018,14.265 -21,27.738 -35.944,40.418c-28.172,24.385 -65.103,46.331 -110.796,65.839c25.938,7.072 43.932,15.18 53.981,24.324c10.049,9.145 17.134,18.289 21.257,27.433c4.123,9.145 6.184,20.728 6.184,34.749c0,14.021 -4.294,28.47 -12.883,43.344c-8.589,14.875 -20.484,28.775 -35.687,41.699c-15.202,12.924 -33.152,24.629 -53.852,35.114c-20.699,10.486 -43.158,19.386 -67.379,26.702c-50.502,15.606 -103.065,23.409 -157.69,23.409c-23.705,0 -42.858,-9.876 -57.459,-29.628Zm143.519,-274.696c-25.767,63.401 -38.65,107.294 -38.65,131.679c-0,11.217 4.123,21.702 12.368,31.456c7.73,9.266 15.803,13.9 24.22,13.9c8.417,-0 17.693,-0.549 27.828,-1.646c10.135,-1.098 20.527,-2.622 31.177,-4.573c10.651,-1.95 21.129,-4.267 31.435,-6.949c10.307,-2.683 19.497,-5.731 27.571,-9.145c17.864,-7.559 26.797,-15.24 26.797,-23.043c-0,-14.144 -13.828,-25.849 -41.484,-35.115c-22.503,-7.315 -43.975,-10.973 -64.416,-10.973c-7.902,-0 -13.571,-2.256 -17.006,-6.767c-3.436,-4.511 -5.154,-9.754 -5.154,-15.728c0,-5.975 2.105,-12.193 6.313,-18.655c4.209,-6.462 9.92,-11.765 17.135,-15.911c58.404,-20.727 107.188,-44.015 146.353,-69.863c19.239,-12.68 28.859,-22.312 28.859,-28.896c-0,-9.51 -1.976,-17.192 -5.927,-23.044c-7.042,-10.485 -14.858,-15.728 -23.447,-15.728c-8.589,-0 -18.38,0.487 -29.374,1.463c-10.993,0.975 -22.846,2.438 -35.557,4.389c-28,3.902 -55.742,9.51 -83.226,16.826c-3.951,11.461 -9.19,24.385 -15.718,38.772l-20.097,47.551Z" style="fill:#191919;fill-rule:nonzero;"/></g></g></svg>