<?xml version="1.0" encoding="UTF-8" standalone="no"?><!DOCTYPE svg PUBLIC "-//W3C//DTD SVG 1.1//EN" "http://www.w3.org/Graphics/SVG/1.1/DTD/svg11.dtd"><svg width="100%" height="100%" viewBox="0 0 2292 2292" version="1.1" xmlns="http://www.w3.org/2000/svg" xmlns:xlink="http://www.w3.org/1999/xlink" xml:space="preserve" xmlns:serif="http://www.serif.com/" style="fill-rule:evenodd;clip-rule:evenodd;stroke-linejoin:round;stroke-miterlimit:2;"><rect id="logo-mark-color" x="0" y="0" width="2291.67" height="2291.67" style="fill:none;"/><clipPath id="_clip1"><rect x="0" y="0" width="2291.67" height="2291.67"/></clipPath><g clip-path="url(#_clip1)"><path d="M1901.84,340.676c2.573,-7.132 8.613,-12.454 16.011,-14.109c7.399,-1.656 15.131,0.584 20.498,5.938c207.39,209.156 336.044,499.753 336.044,820.817c-0,570.538 -406.266,1044.87 -939.069,1137.1c-30.266,5.196 -61.013,-6.088 -80.732,-29.629c-19.719,-23.541 -25.437,-55.79 -15.014,-84.676c6.049,-16.785 11.939,-33.11 17.126,-47.486c10.898,-30.202 38.179,-51.456 70.129,-54.636c473.053,-46.73 843.398,-454.652 843.398,-950.274c0,-255.888 -98.72,-488.399 -259.339,-659.903c-23.664,-25.347 -31.146,-61.809 -19.377,-94.427c3.514,-9.837 7.102,-19.782 10.325,-28.714Zm-895.284,1800.8c-32.255,89.394 -130.316,136.319 -220.165,105.355c-446.854,-153.529 -769.123,-585.361 -769.123,-1093.51c-0,-636.536 505.692,-1153.32 1128.56,-1153.32c200.097,-0 388.1,53.333 551.185,146.869c13.994,8.098 20.182,25.053 14.694,40.262c-1.895,5.308 -3.999,11.14 -6.195,17.227c-6.962,19.293 -21.62,34.83 -40.476,42.903c-18.855,8.072 -40.216,7.955 -58.981,-0.324c-113.482,-50.155 -238.624,-77.957 -370.07,-77.957c-515.623,-0 -934.244,427.805 -934.244,954.74c0,426.539 274.299,788.123 652.272,910.415c21.421,6.96 39.103,22.31 49.005,42.54c9.902,20.23 11.176,43.61 3.531,64.797c0.006,0.002 0.006,0.002 0.005,0.002Zm-210.81,-500.219c-13.843,-18.618 -24.226,-39.692 -31.147,-63.222c-6.922,-23.531 -10.383,-43.958 -10.383,-61.283c0,-17.324 3.279,-37.881 9.836,-61.67c6.558,-23.789 15.483,-51.328 26.776,-82.615c11.294,-31.288 24.408,-65.42 39.345,-102.396c14.936,-36.977 30.965,-74.341 48.087,-112.093l51.366,-112.481c17.851,-36.717 35.338,-70.849 52.46,-102.396c-72.86,33.098 -126.868,65.291 -162.023,96.578c-35.155,31.288 -62.204,54.172 -81.147,68.652c-18.944,14.481 -34.609,21.721 -46.995,21.721c-20.401,-0 -30.601,-18.101 -30.601,-54.301c-0,-51.715 18.943,-115.325 56.83,-190.829c39.345,-78.09 80.055,-126.444 122.132,-145.062c42.077,-18.617 89.071,-36.329 140.984,-53.137c51.913,-16.807 105.92,-31.417 162.022,-43.829c121.676,-26.891 234.792,-40.337 339.346,-40.337c119.49,-0 195.811,16.031 228.962,48.095c29.508,28.443 49.545,67.747 60.109,117.91c5.101,24.307 7.651,50.423 7.651,78.349c-0,27.926 -9.563,57.016 -28.689,87.269c-19.126,30.254 -44.536,58.826 -76.23,85.718c-59.745,51.716 -138.069,98.259 -234.973,139.631c55.009,14.998 93.17,32.193 114.481,51.586c21.312,19.394 36.339,38.787 45.082,58.18c8.744,19.393 13.115,43.958 13.115,73.694c0,29.736 -9.107,60.378 -27.322,91.924c-18.215,31.546 -43.443,61.024 -75.684,88.433c-32.24,27.409 -70.309,52.232 -114.208,74.47c-43.898,22.237 -91.53,41.113 -142.896,56.628c-107.104,33.098 -218.58,49.647 -334.427,49.647c-50.274,-0 -90.893,-20.945 -121.859,-62.834Zm304.373,-582.572c-54.645,134.459 -81.968,227.547 -81.968,279.262c0,23.789 8.744,46.026 26.23,66.713c16.393,19.651 33.515,29.477 51.366,29.477c17.851,0 37.523,-1.163 59.017,-3.491c21.493,-2.327 43.534,-5.559 66.12,-9.696c22.587,-4.137 44.809,-9.05 66.667,-14.739c21.858,-5.689 41.348,-12.153 58.47,-19.393c37.887,-16.032 56.831,-32.322 56.831,-48.871c-0,-29.995 -29.326,-54.818 -87.979,-74.47c-47.723,-15.515 -93.26,-23.272 -136.612,-23.272c-16.758,0 -28.78,-4.784 -36.066,-14.351c-7.286,-9.567 -10.929,-20.686 -10.929,-33.356c0,-12.67 4.463,-25.858 13.388,-39.562c8.926,-13.705 21.039,-24.953 36.339,-33.744c123.862,-43.958 227.323,-93.346 310.384,-148.165c40.801,-26.891 61.202,-47.319 61.202,-61.282c0,-20.169 -4.189,-36.459 -12.568,-48.871c-14.937,-22.237 -31.512,-33.356 -49.727,-33.356c-18.215,-0 -38.98,1.034 -62.295,3.103c-23.316,2.068 -48.452,5.171 -75.41,9.308c-59.381,8.275 -118.216,20.169 -176.504,35.684c-8.379,24.306 -19.49,51.715 -33.333,82.227l-42.623,100.845Z" style="fill:#191919;fill-rule:nonzero;"/></g></svg>