<?xml version="1.0" encoding="UTF-8" standalone="no"?><!DOCTYPE svg PUBLIC "-//W3C//DTD SVG 1.1//EN" "http://www.w3.org/Graphics/SVG/1.1/DTD/svg11.dtd"><svg width="100%" height="100%" viewBox="0 0 5000 1667" version="1.1" xmlns="http://www.w3.org/2000/svg" xmlns:xlink="http://www.w3.org/1999/xlink" xml:space="preserve" xmlns:serif="http://www.serif.com/" style="fill-rule:evenodd;clip-rule:evenodd;stroke-linejoin:round;stroke-miterlimit:2;"><rect id="wordmark" x="0" y="0" width="5000" height="1666.67" style="fill:none;"/><clipPath id="_clip1"><rect x="0" y="0" width="5000" height="1666.67"/></clipPath><g clip-path="url(#_clip1)"><g><path d="M91.6,1108.13c-9.433,-8.936 -16.508,-19.052 -21.225,-30.347c-4.716,-11.295 -7.074,-21.1 -7.074,-29.416c-0,-8.316 2.234,-18.183 6.702,-29.602c4.468,-11.419 10.55,-24.638 18.245,-39.656c7.696,-15.019 16.632,-31.402 26.81,-49.151c10.178,-17.749 21.1,-35.684 32.767,-53.806l35.002,-53.991c12.164,-17.625 24.079,-34.009 35.746,-49.151c-49.647,15.887 -86.449,31.34 -110.404,46.358c-23.954,15.018 -42.386,26.003 -55.294,32.954c-12.909,6.95 -23.583,10.425 -32.023,10.425c-13.901,0 -20.852,-8.688 -20.852,-26.064c-0,-24.824 12.908,-55.357 38.725,-91.6c26.81,-37.484 54.55,-60.694 83.222,-69.631c28.671,-8.936 60.694,-17.438 96.068,-25.506c35.373,-8.068 72.175,-15.081 110.403,-21.038c82.912,-12.909 159.989,-19.363 231.233,-19.363c81.422,0 133.428,7.696 156.018,23.086c20.107,13.653 33.76,32.519 40.959,56.598c3.475,11.668 5.213,24.204 5.213,37.608c-0,13.405 -6.516,27.369 -19.549,41.891c-13.032,14.521 -30.347,28.237 -51.943,41.145c-40.711,24.824 -94.082,47.165 -160.114,67.024c37.484,7.199 63.487,15.453 78.009,24.762c14.522,9.309 24.762,18.618 30.719,27.926c5.958,9.309 8.937,21.101 8.937,35.374c-0,14.274 -6.206,28.982 -18.618,44.124c-12.412,15.143 -29.602,29.293 -51.571,42.449c-21.969,13.157 -47.91,25.072 -77.823,35.746c-29.912,10.675 -62.369,19.735 -97.371,27.182c-72.982,15.888 -148.942,23.831 -227.882,23.831c-34.257,0 -61.935,-10.054 -83.035,-30.161Zm207.402,-279.639c-37.236,64.541 -55.853,109.224 -55.853,134.048c-0,11.419 5.957,22.093 17.873,32.023c11.17,9.433 22.838,14.149 35.001,14.149c12.164,0 25.569,-0.558 40.215,-1.675c14.646,-1.118 29.664,-2.669 45.055,-4.655c15.391,-1.986 30.533,-4.344 45.427,-7.075c14.895,-2.73 28.175,-5.833 39.842,-9.309c25.817,-7.695 38.725,-15.514 38.725,-23.458c0,-14.398 -19.983,-26.313 -59.949,-35.746c-32.519,-7.447 -63.549,-11.171 -93.089,-11.171c-11.419,0 -19.611,-2.296 -24.575,-6.889c-4.965,-4.592 -7.448,-9.929 -7.448,-16.011c0,-6.082 3.041,-12.412 9.123,-18.99c6.082,-6.578 14.336,-11.977 24.762,-16.198c84.401,-21.1 154.9,-44.806 211.498,-71.12c27.803,-12.908 41.704,-22.713 41.704,-29.416c0,-9.681 -2.855,-17.5 -8.564,-23.458c-10.178,-10.674 -21.473,-16.011 -33.885,-16.011c-12.411,-0 -26.561,0.496 -42.448,1.489c-15.887,0.993 -33.016,2.482 -51.385,4.468c-40.463,3.972 -80.553,9.681 -120.271,17.129c-5.71,11.667 -13.281,24.823 -22.714,39.469l-29.044,48.407Zm808.503,193.902c-8.247,7.145 -16.728,14.252 -25.438,21.32c-70.747,56.598 -133.924,84.897 -189.529,84.897c-39.966,-0 -72.734,-17.377 -98.302,-52.13c-26.561,-36.243 -39.842,-84.897 -39.842,-145.964c-0,-80.18 39.097,-168.801 117.292,-265.862c49.648,-61.811 96.44,-103.763 140.378,-125.856c13.653,-6.951 24.141,-10.426 31.464,-10.426c7.323,-0 14.026,1.179 20.108,3.537c6.082,2.358 11.729,5.647 16.942,9.867c12.164,10.178 18.245,22.466 18.245,36.864c0,14.397 -3.971,31.464 -11.915,51.199c-7.944,19.735 -19.487,40.773 -34.629,63.114c-32.023,47.413 -75.34,92.841 -129.953,136.282c-14.149,27.058 -21.224,59.577 -21.224,97.558c0,17.128 5.461,33.264 16.384,48.406c11.171,15.143 23.458,22.714 36.863,22.714c18.37,-0 53.495,-18.99 105.377,-56.971l66.279,-51.013c6.532,-5.213 12.934,-9.797 19.207,-13.753c6.142,-10.01 13.022,-19.948 20.635,-29.812c12.412,-15.887 26.314,-29.789 41.704,-41.704c33.264,-20.852 68.514,-31.278 105.75,-31.278c16.383,-0 28.05,5.089 35.001,15.267c2.731,3.971 4.096,9.122 4.096,15.452c-0,6.33 -1.8,13.653 -5.399,21.969c-3.6,8.316 -8.006,17.005 -13.219,26.065c-5.213,9.061 -10.984,18.432 -17.314,28.113c-6.33,9.681 -12.102,19.115 -17.315,28.299c-12.412,21.845 -18.618,37.546 -18.618,47.103c0,9.558 2.731,16.57 8.192,21.038c5.461,4.469 12.164,6.703 20.107,6.703c17.625,-0 32.644,-4.282 45.055,-12.846c12.412,-8.565 24.7,-18.432 36.864,-29.603l35.001,-34.256l33.885,-35.002c24.079,-24.575 42.386,-39.904 54.922,-45.986c12.536,-6.082 21.659,-8.378 27.368,-6.889c5.71,1.49 11.543,4.158 17.501,8.006c5.958,3.848 11.791,8.502 17.501,13.963c13.405,12.909 20.852,24.576 22.341,35.002c0.497,6.702 -0.062,16.694 -1.675,29.975c-1.614,13.28 -2.421,22.403 -2.421,27.368c0,25.072 11.047,37.608 33.14,37.608c22.093,-0 60.322,-21.225 114.686,-63.673l12.195,-9.978c9.861,-10.96 21.186,-21.784 33.977,-32.471c48.158,-40.214 104.88,-71.368 170.167,-93.461c39.718,-13.405 73.354,-20.107 100.908,-20.107c22.342,-0 41.208,5.461 56.598,16.383c16.384,11.916 24.576,27.927 24.576,48.034c-0,31.526 -24.948,66.404 -74.844,104.632c-7.943,6.206 -15.142,11.419 -21.596,15.639l-13.405,8.937c-24.824,17.376 -62.556,36.863 -113.196,58.46c15.638,8.192 30.222,12.288 43.751,12.288c13.529,-0 25.693,-1.614 36.491,-4.841c10.799,-3.227 23.024,-7.82 36.677,-13.777c13.653,-5.958 28.237,-13.095 43.752,-21.411c15.515,-8.316 31.216,-17.438 47.103,-27.368c25.726,-16.011 48.974,-32.282 69.744,-48.814c1.278,-2.72 2.606,-5.438 3.983,-8.156c29.292,-58.088 70.003,-97.061 122.133,-116.92c17.376,-6.703 32.209,-10.054 44.496,-10.054c12.288,0 21.907,0.559 28.858,1.676c6.951,1.117 13.281,3.165 18.99,6.144c13.405,6.702 20.107,17.376 20.107,32.022c0,12.66 -5.213,26.189 -15.639,40.587c-10.426,14.398 -19.362,26.065 -26.809,35.002c-7.447,8.936 -14.274,17.997 -20.48,27.182c-14.646,21.348 -21.969,39.842 -21.969,55.481c0,11.419 7.571,17.128 22.714,17.128c23.582,-0 60.57,-23.334 110.962,-70.003c10.426,-35.25 27.182,-65.286 50.268,-90.11c25.817,-27.803 54.364,-41.704 85.642,-41.704c26.313,-0 44.186,6.082 53.619,18.245c3.227,3.972 4.841,7.758 4.841,11.357c-0,3.6 -2.11,8.751 -6.33,15.453l-35.746,55.853c-27.803,43.442 -41.704,75.961 -41.704,97.558c-0,19.114 11.667,28.671 35.001,28.671c17.625,0 49.027,-21.969 94.206,-65.907c-1.737,-6.702 -2.606,-13.529 -2.606,-20.479c-0,-6.951 1.676,-14.646 5.027,-23.087c3.351,-8.44 8.005,-17.376 13.963,-26.809c5.958,-9.433 12.908,-18.866 20.852,-28.299c7.944,-9.433 16.508,-17.997 25.693,-25.693c20.603,-16.88 40.09,-25.32 58.46,-25.32c33.512,-0 50.268,17.004 50.268,51.013c-0,21.596 -6.206,44.186 -18.618,67.769c-0,7.695 4.22,14.273 12.66,19.734c2.482,1.738 6.02,2.607 10.612,2.607c4.592,-0 10.612,-1.986 18.059,-5.958c5.845,-3.117 11.689,-6.693 17.534,-10.727c1.55,-1.65 3.153,-3.288 4.808,-4.912c37.98,-37.235 97.929,-71.368 179.848,-102.398c77.45,-29.043 140.006,-43.565 187.667,-43.565c16.136,-0 24.204,7.943 24.204,23.83c-0,10.923 -2.11,19.115 -6.331,24.576c-4.22,5.461 -12.908,11.047 -26.064,16.756l-46.917,20.107c-69.507,29.044 -120.396,59.205 -152.666,90.483c-9.185,8.688 -13.778,17.128 -13.778,25.32c0,8.192 6.579,12.288 19.735,12.288c12.909,-0 42.945,-13.902 90.111,-41.704l30.905,-18.246c47.91,-28.795 88,-43.193 120.271,-43.193c27.306,0 45.428,12.04 54.364,36.119c2.234,6.454 4.344,12.97 6.33,19.548c1.986,6.579 3.972,12.474 5.958,17.687c4.468,12.164 8.502,18.246 12.102,18.246c3.599,-0 8.75,-1.8 15.452,-5.399c6.703,-3.6 14.088,-8.192 22.155,-13.778c8.068,-5.585 16.446,-11.729 25.135,-18.431l39.579,-31.729c6.139,-21.586 15.535,-42.41 28.189,-62.477c17.625,-28.051 40.96,-48.158 70.003,-60.322c14.646,-6.206 28.548,-9.309 41.704,-9.309c13.157,-0 24.017,0.683 32.581,2.048c8.565,1.365 16.446,3.413 23.645,6.144c16.632,6.206 24.948,14.149 24.948,23.831c-0,11.419 -3.972,22.341 -11.915,32.767c-7.944,10.426 -14.895,18.866 -20.852,25.32l-17.129,18.618c-13.901,14.646 -22.465,25.196 -25.692,31.65c-4.965,10.178 -7.448,21.411 -7.448,33.699c0,12.287 1.118,22.093 3.352,29.416c2.234,7.323 5.213,13.963 8.936,19.921c7.944,13.405 16.012,20.107 24.203,20.107c11.419,-0 35.622,-16.88 72.61,-50.64l32.767,-30.161c-0.993,-4.965 -1.489,-10.55 -1.489,-16.756c-0,-6.206 1.737,-13.778 5.213,-22.714c3.475,-8.937 8.254,-18.37 14.336,-28.299c6.081,-9.93 13.28,-19.859 21.596,-29.789c8.316,-9.929 17.191,-18.99 26.624,-27.182c21.1,-17.873 41.083,-26.809 59.949,-26.809c33.512,-0 50.268,17.5 50.268,52.502c0,21.845 -6.206,45.179 -18.618,70.003c0,9.185 4.965,16.88 14.895,23.086c2.978,1.986 6.64,2.979 10.984,2.979c4.344,-0 9.371,-1.738 15.08,-5.213c5.71,-3.475 11.419,-7.571 17.129,-12.288l15.628,-13.448c8.657,-9.141 18.342,-18.188 29.055,-27.139c48.158,-40.214 104.88,-71.368 170.166,-93.461c39.718,-13.405 73.355,-20.107 100.909,-20.107c22.341,-0 41.207,5.461 56.598,16.383c16.384,11.916 24.576,27.927 24.576,48.034c-0,31.526 -24.948,66.404 -74.844,104.632c-7.944,6.206 -15.142,11.419 -21.597,15.639l-13.404,8.937c-24.824,17.376 -62.556,36.863 -113.197,58.46c15.639,8.192 30.223,12.288 43.752,12.288c13.529,-0 25.693,-1.614 36.491,-4.841c10.798,-3.227 23.024,-7.82 36.677,-13.777c13.653,-5.958 28.237,-13.095 43.752,-21.411c15.515,-8.316 31.216,-17.438 47.103,-27.368c22.115,-13.764 42.4,-27.721 60.849,-41.867c3.71,-4.324 8.748,-8.986 15.112,-13.986c8.588,-6.748 15.731,-12.193 21.43,-16.336c6.133,-5.077 12.928,-9.691 20.388,-13.841c1.677,-1.159 3.252,-2.271 4.726,-3.335l39.47,-26.81c0,-25.32 14.646,-48.531 43.938,-69.631c27.803,-19.859 55.357,-29.788 82.663,-29.788c17.377,-0 30.161,8.44 38.353,25.32c2.482,4.965 3.723,11.481 3.723,19.549c0,8.067 -4.096,17.19 -12.287,27.368c6.454,6.702 14.708,14.46 24.761,23.272c10.054,8.813 19.797,18.432 29.23,28.858c22.838,25.568 34.257,50.02 34.257,73.354c0,15.391 -10.55,34.133 -31.65,56.226c-6.454,6.95 -13.529,13.405 -21.225,19.362c25.817,-9.929 56.847,-29.664 93.09,-59.204l43.565,-35.747c25.32,-21.1 42.263,-33.263 50.827,-36.49c8.564,-3.228 16.321,-4.841 23.272,-4.841c6.951,-0 13.715,1.738 20.294,5.213c6.578,3.475 9.867,9.123 9.867,16.942c-0,7.82 -1.241,15.391 -3.724,22.714c-2.482,7.323 -5.461,14.087 -8.936,20.293c-4.965,8.937 -12.164,18.122 -21.597,27.555c-26.065,24.575 -51.323,47.103 -75.774,67.582c-24.452,20.48 -49.71,38.043 -75.775,52.689c-55.109,30.781 -116.175,46.172 -183.199,46.172c-37.484,-0 -70.003,-9.557 -97.557,-28.672c-11.419,-7.943 -20.17,-16.197 -26.252,-24.761c-6.081,-8.564 -9.122,-15.267 -9.122,-20.108c-0,-4.84 1.613,-9.929 4.84,-15.266c3.227,-5.337 7.572,-10.861 13.033,-16.57c5.461,-5.709 11.729,-11.419 18.804,-17.128c7.075,-5.71 14.336,-10.799 21.783,-15.267c17.376,-10.178 30.347,-15.267 38.911,-15.267c8.564,0 15.08,1.055 19.549,3.165c4.468,2.11 8.564,4.407 12.287,6.889c10.178,6.951 17.377,10.426 21.597,10.426c10.178,0 15.267,-6.951 15.267,-20.852c-0,-12.908 -6.827,-28.423 -20.48,-46.544c-5.461,-7.448 -11.171,-14.771 -17.128,-21.969c-5.958,-7.199 -10.923,-14.274 -14.895,-21.225c-7.943,9.185 -17.873,18.618 -29.788,28.299l-36.119,30.534c-1.842,1.587 -3.675,3.113 -5.502,4.581c-8.801,8.556 -18.448,17.33 -28.941,26.324c-14.77,12.66 -32.022,25.941 -51.757,39.842c-19.735,13.901 -41.518,27.679 -65.349,41.332c-23.83,13.653 -49.151,25.941 -75.96,36.863c-59.329,24.327 -116.796,36.491 -172.401,36.491c-42.449,-0 -79.56,-11.047 -111.335,-33.14c-29.841,-20.71 -46.297,-45.416 -49.367,-74.116c-13.443,3.239 -29.444,4.858 -48.004,4.858c-20.231,-0 -42.387,-6.951 -66.466,-20.852c-36.49,32.023 -69.382,56.846 -98.674,74.471c-51.385,30.782 -86.511,46.172 -105.377,46.172c-32.519,0 -58.584,-5.337 -78.195,-16.011c-34.324,-19.377 -55.89,-52.541 -64.698,-99.494c-48.839,42.739 -95.413,72.427 -139.725,89.068c-35.25,13.157 -60.57,12.536 -75.961,-1.862c-12.66,-12.163 -22.714,-31.774 -30.161,-58.832l-8.936,-32.395l-79.312,48.779l-45.8,26.065c-54.612,29.788 -95.571,44.682 -122.878,44.682c-35.001,0 -64.169,-13.529 -87.503,-40.586c-15.242,-17.443 -25.284,-36.792 -30.127,-58.045c-14.737,4.191 -32.125,6.287 -52.164,6.287c-20.107,0 -41.58,-6.454 -64.418,-19.362c-56.846,51.881 -109.224,88.372 -157.134,109.472c-14.894,6.454 -26.065,9.682 -33.512,9.682c-7.447,-0 -14.522,-0.497 -21.224,-1.49c-6.703,-0.993 -13.281,-2.234 -19.735,-3.723c-15.639,-3.972 -25.941,-7.634 -30.906,-10.985c-4.965,-3.351 -10.053,-7.881 -15.266,-13.591c-5.213,-5.709 -9.93,-12.908 -14.15,-21.597c-9.681,-19.114 -15.887,-44.062 -18.618,-74.843c-60.073,53.123 -96.75,84.152 -110.031,93.089c-13.281,8.936 -24.265,15.391 -32.954,19.362c-15.887,7.447 -32.953,11.171 -51.199,11.171c-18.245,0 -34.132,-3.972 -47.661,-11.915c-13.529,-7.944 -25.01,-17.998 -34.443,-30.161c-16.154,-21.125 -25.57,-44.064 -28.246,-68.816c-17.385,11.858 -36.269,23.626 -56.651,35.304c-23.831,13.653 -49.151,25.941 -75.961,36.863c-59.329,24.327 -116.796,36.491 -172.401,36.491c-42.449,-0 -79.56,-11.047 -111.335,-33.14c-23.158,-16.072 -38.255,-34.551 -45.289,-55.434l-1.255,0.884c-17.128,12.04 -34.381,23.024 -51.758,32.954c-39.221,22.837 -71.492,34.256 -96.812,34.256c-30.285,0 -53.992,-10.674 -71.12,-32.022c-16.136,-19.859 -25.196,-46.421 -27.182,-79.685c-44.683,45.924 -91.972,81.298 -141.868,106.122c-30.533,15.142 -56.35,22.714 -77.45,22.714c-21.1,-0 -39.594,-2.545 -55.481,-7.634c-15.887,-5.088 -29.789,-12.722 -41.704,-22.899c-21.965,-18.375 -34.586,-42.859 -37.863,-73.45Zm770.66,-71.025l20.48,-10.426c6.702,-3.475 12.66,-6.702 17.873,-9.681c50.144,-28.796 78.691,-46.545 85.642,-53.247c6.95,-6.702 10.426,-11.357 10.426,-13.963c-0,-2.607 -0.745,-5.648 -2.234,-9.123c-1.49,-3.475 -3.476,-6.578 -5.958,-9.309c-5.958,-6.951 -12.288,-10.426 -18.99,-10.426c-6.703,0 -14.088,1.241 -22.156,3.724c-8.067,2.482 -16.197,5.895 -24.389,10.239c-8.192,4.345 -16.073,9.558 -23.645,15.639c-7.571,6.082 -14.211,12.598 -19.921,19.549c-13.156,15.639 -19.734,29.168 -19.734,40.587c-0,11.419 0.868,20.231 2.606,26.437Zm2279.19,0l20.479,-10.426c6.703,-3.475 12.66,-6.702 17.873,-9.681c50.144,-28.796 78.692,-46.545 85.642,-53.247c6.951,-6.702 10.426,-11.357 10.426,-13.963c0,-2.607 -0.744,-5.648 -2.234,-9.123c-1.489,-3.475 -3.475,-6.578 -5.957,-9.309c-5.958,-6.951 -12.288,-10.426 -18.991,-10.426c-6.702,0 -14.087,1.241 -22.155,3.724c-8.068,2.482 -16.197,5.895 -24.389,10.239c-8.192,4.345 -16.074,9.558 -23.645,15.639c-7.571,6.082 -14.211,12.598 -19.921,19.549c-13.156,15.639 -19.735,29.168 -19.735,40.587c0,11.419 0.869,20.231 2.607,26.437Z" style="fill:#191919;fill-rule:nonzero;"/></g></g></svg>