<?xml version="1.0" encoding="UTF-8" standalone="no"?><!DOCTYPE svg PUBLIC "-//W3C//DTD SVG 1.1//EN" "http://www.w3.org/Graphics/SVG/1.1/DTD/svg11.dtd"><svg width="100%" height="100%" viewBox="0 0 2296 2292" version="1.1" xmlns="http://www.w3.org/2000/svg" xmlns:xlink="http://www.w3.org/1999/xlink" xml:space="preserve" xmlns:serif="http://www.serif.com/" style="fill-rule:evenodd;clip-rule:evenodd;stroke-linejoin:round;stroke-miterlimit:2;"><rect id="pattern-01" x="0.604" y="0" width="2291.67" height="2291.67" style="fill:none;"/><path d="M46.354,0l19.814,14.395l-9.907,13.636l16.03,5.208l-7.568,23.293l-16.03,-5.209l-0,16.855l-24.491,-0l-0,-16.855l-16.03,5.209l-7.568,-23.293l16.03,-5.208l-9.907,-13.636l19.814,-14.395l9.906,13.636l9.907,-13.636Z" style="fill:#bfbfbf;"/><path d="M46.354,381.944l19.814,14.396l-9.907,13.636l16.03,5.208l-7.568,23.292l-16.03,-5.208l-0,16.854l-24.491,0l-0,-16.854l-16.03,5.208l-7.568,-23.292l16.03,-5.208l-9.907,-13.636l19.814,-14.396l9.906,13.636l9.907,-13.636Z" style="fill:#bfbfbf;"/><path d="M46.354,763.889l19.814,14.395l-9.907,13.636l16.03,5.208l-7.568,23.293l-16.03,-5.209l-0,16.855l-24.491,-0l-0,-16.855l-16.03,5.209l-7.568,-23.293l16.03,-5.208l-9.907,-13.636l19.814,-14.395l9.906,13.635l9.907,-13.635Z" style="fill:#bfbfbf;"/><path d="M46.354,1145.83l19.814,14.396l-9.907,13.635l16.03,5.209l-7.568,23.292l-16.03,-5.208l-0,16.854l-24.491,0l-0,-16.854l-16.03,5.208l-7.568,-23.292l16.03,-5.209l-9.907,-13.635l19.814,-14.396l9.906,13.636l9.907,-13.636Z" style="fill:#bfbfbf;"/><path d="M46.354,1527.78l19.814,14.395l-9.907,13.636l16.03,5.208l-7.568,23.293l-16.03,-5.209l-0,16.855l-24.491,-0l-0,-16.855l-16.03,5.209l-7.568,-23.293l16.03,-5.208l-9.907,-13.636l19.814,-14.395l9.906,13.635l9.907,-13.635Z" style="fill:#bfbfbf;"/><path d="M46.354,1909.72l19.814,14.396l-9.907,13.635l16.03,5.209l-7.568,23.292l-16.03,-5.208l-0,16.854l-24.491,0l-0,-16.854l-16.03,5.208l-7.568,-23.292l16.03,-5.209l-9.907,-13.635l19.814,-14.396l9.906,13.636l9.907,-13.636Z" style="fill:#bfbfbf;"/><path d="M428.299,0l19.813,14.395l-9.907,13.636l16.03,5.208l-7.568,23.293l-16.03,-5.209l0,16.855l-24.491,-0l0,-16.855l-16.029,5.209l-7.568,-23.293l16.029,-5.208l-9.907,-13.636l19.814,-14.395l9.907,13.636l9.907,-13.636Z" style="fill:#bfbfbf;"/><path d="M428.299,381.944l19.813,14.396l-9.907,13.636l16.03,5.208l-7.568,23.292l-16.03,-5.208l0,16.854l-24.491,0l0,-16.854l-16.029,5.208l-7.568,-23.292l16.029,-5.208l-9.907,-13.636l19.814,-14.396l9.907,13.636l9.907,-13.636Z" style="fill:#bfbfbf;"/><path d="M428.299,763.889l19.813,14.395l-9.907,13.636l16.03,5.208l-7.568,23.293l-16.03,-5.209l0,16.855l-24.491,-0l0,-16.855l-16.029,5.209l-7.568,-23.293l16.029,-5.208l-9.907,-13.636l19.814,-14.395l9.907,13.635l9.907,-13.635Z" style="fill:#bfbfbf;"/><path d="M428.299,1145.83l19.813,14.396l-9.907,13.635l16.03,5.209l-7.568,23.292l-16.03,-5.208l0,16.854l-24.491,0l0,-16.854l-16.029,5.208l-7.568,-23.292l16.029,-5.209l-9.907,-13.635l19.814,-14.396l9.907,13.636l9.907,-13.636Z" style="fill:#bfbfbf;"/><path d="M428.299,1527.78l19.813,14.395l-9.907,13.636l16.03,5.208l-7.568,23.293l-16.03,-5.209l0,16.855l-24.491,-0l0,-16.855l-16.029,5.209l-7.568,-23.293l16.029,-5.208l-9.907,-13.636l19.814,-14.395l9.907,13.635l9.907,-13.635Z" style="fill:#bfbfbf;"/><path d="M428.299,1909.72l19.813,14.396l-9.907,13.635l16.03,5.209l-7.568,23.292l-16.03,-5.208l0,16.854l-24.491,0l0,-16.854l-16.029,5.208l-7.568,-23.292l16.029,-5.209l-9.907,-13.635l19.814,-14.396l9.907,13.636l9.907,-13.636Z" style="fill:#bfbfbf;"/><path d="M810.243,0l19.814,14.395l-9.907,13.636l16.03,5.208l-7.569,23.293l-16.029,-5.209l-0,16.855l-24.491,-0l-0,-16.855l-16.03,5.209l-7.568,-23.293l16.03,-5.208l-9.907,-13.636l19.813,-14.395l9.907,13.636l9.907,-13.636Z" style="fill:#bfbfbf;"/><path d="M810.243,381.944l19.814,14.396l-9.907,13.636l16.03,5.208l-7.569,23.292l-16.029,-5.208l-0,16.854l-24.491,0l-0,-16.854l-16.03,5.208l-7.568,-23.292l16.03,-5.208l-9.907,-13.636l19.813,-14.396l9.907,13.636l9.907,-13.636Z" style="fill:#bfbfbf;"/><path d="M810.243,763.889l19.814,14.395l-9.907,13.636l16.03,5.208l-7.569,23.293l-16.029,-5.209l-0,16.855l-24.491,-0l-0,-16.855l-16.03,5.209l-7.568,-23.293l16.03,-5.208l-9.907,-13.636l19.813,-14.395l9.907,13.635l9.907,-13.635Z" style="fill:#bfbfbf;"/><path d="M810.243,1145.83l19.814,14.396l-9.907,13.635l16.03,5.209l-7.569,23.292l-16.029,-5.208l-0,16.854l-24.491,0l-0,-16.854l-16.03,5.208l-7.568,-23.292l16.03,-5.209l-9.907,-13.635l19.813,-14.396l9.907,13.636l9.907,-13.636Z" style="fill:#bfbfbf;"/><path d="M810.243,1527.78l19.814,14.395l-9.907,13.636l16.03,5.208l-7.569,23.293l-16.029,-5.209l-0,16.855l-24.491,-0l-0,-16.855l-16.03,5.209l-7.568,-23.293l16.03,-5.208l-9.907,-13.636l19.813,-14.395l9.907,13.635l9.907,-13.635Z" style="fill:#bfbfbf;"/><path d="M810.243,1909.72l19.814,14.396l-9.907,13.635l16.03,5.209l-7.569,23.292l-16.029,-5.208l-0,16.854l-24.491,0l-0,-16.854l-16.03,5.208l-7.568,-23.292l16.03,-5.209l-9.907,-13.635l19.813,-14.396l9.907,13.636l9.907,-13.636Z" style="fill:#bfbfbf;"/><path d="M1192.19,0l19.813,14.395l-9.907,13.636l16.03,5.208l-7.568,23.293l-16.03,-5.209l0,16.855l-24.491,-0l0,-16.855l-16.029,5.209l-7.569,-23.293l16.03,-5.208l-9.907,-13.636l19.814,-14.395l9.907,13.636l9.907,-13.636Z" style="fill:#bfbfbf;"/><path d="M1192.19,381.944l19.813,14.396l-9.907,13.636l16.03,5.208l-7.568,23.292l-16.03,-5.208l0,16.854l-24.491,0l0,-16.854l-16.029,5.208l-7.569,-23.292l16.03,-5.208l-9.907,-13.636l19.814,-14.396l9.907,13.636l9.907,-13.636Z" style="fill:#bfbfbf;"/><path d="M1192.19,763.889l19.813,14.395l-9.907,13.636l16.03,5.208l-7.568,23.293l-16.03,-5.209l0,16.855l-24.491,-0l0,-16.855l-16.029,5.209l-7.569,-23.293l16.03,-5.208l-9.907,-13.636l19.814,-14.395l9.907,13.635l9.907,-13.635Z" style="fill:#bfbfbf;"/><path d="M1192.19,1145.83l19.813,14.396l-9.907,13.635l16.03,5.209l-7.568,23.292l-16.03,-5.208l0,16.854l-24.491,0l0,-16.854l-16.029,5.208l-7.569,-23.292l16.03,-5.209l-9.907,-13.635l19.814,-14.396l9.907,13.636l9.907,-13.636Z" style="fill:#bfbfbf;"/><path d="M1192.19,1527.78l19.813,14.395l-9.907,13.636l16.03,5.208l-7.568,23.293l-16.03,-5.209l0,16.855l-24.491,-0l0,-16.855l-16.029,5.209l-7.569,-23.293l16.03,-5.208l-9.907,-13.636l19.814,-14.395l9.907,13.635l9.907,-13.635Z" style="fill:#bfbfbf;"/><path d="M1192.19,1909.72l19.813,14.396l-9.907,13.635l16.03,5.209l-7.568,23.292l-16.03,-5.208l0,16.854l-24.491,0l0,-16.854l-16.029,5.208l-7.569,-23.292l16.03,-5.209l-9.907,-13.635l19.814,-14.396l9.907,13.636l9.907,-13.636Z" style="fill:#bfbfbf;"/><path d="M1574.13,0l19.814,14.395l-9.907,13.636l16.029,5.208l-7.568,23.293l-16.029,-5.209l-0,16.855l-24.491,-0l-0,-16.855l-16.03,5.209l-7.568,-23.293l16.029,-5.208l-9.906,-13.636l19.813,-14.395l9.907,13.636l9.907,-13.636Z" style="fill:#bfbfbf;"/><path d="M1574.13,381.944l19.814,14.396l-9.907,13.636l16.029,5.208l-7.568,23.292l-16.029,-5.208l-0,16.854l-24.491,0l-0,-16.854l-16.03,5.208l-7.568,-23.292l16.029,-5.208l-9.906,-13.636l19.813,-14.396l9.907,13.636l9.907,-13.636Z" style="fill:#bfbfbf;"/><path d="M1574.13,763.889l19.814,14.395l-9.907,13.636l16.029,5.208l-7.568,23.293l-16.029,-5.209l-0,16.855l-24.491,-0l-0,-16.855l-16.03,5.209l-7.568,-23.293l16.029,-5.208l-9.906,-13.636l19.813,-14.395l9.907,13.635l9.907,-13.635Z" style="fill:#bfbfbf;"/><path d="M1574.13,1145.83l19.814,14.396l-9.907,13.635l16.029,5.209l-7.568,23.292l-16.029,-5.208l-0,16.854l-24.491,0l-0,-16.854l-16.03,5.208l-7.568,-23.292l16.029,-5.209l-9.906,-13.635l19.813,-14.396l9.907,13.636l9.907,-13.636Z" style="fill:#bfbfbf;"/><path d="M1574.13,1527.78l19.814,14.395l-9.907,13.636l16.029,5.208l-7.568,23.293l-16.029,-5.209l-0,16.855l-24.491,-0l-0,-16.855l-16.03,5.209l-7.568,-23.293l16.029,-5.208l-9.906,-13.636l19.813,-14.395l9.907,13.635l9.907,-13.635Z" style="fill:#bfbfbf;"/><path d="M1574.13,1909.72l19.814,14.396l-9.907,13.635l16.029,5.209l-7.568,23.292l-16.029,-5.208l-0,16.854l-24.491,0l-0,-16.854l-16.03,5.208l-7.568,-23.292l16.029,-5.209l-9.906,-13.635l19.813,-14.396l9.907,13.636l9.907,-13.636Z" style="fill:#bfbfbf;"/><path d="M1956.08,0l19.814,14.395l-9.907,13.636l16.03,5.208l-7.568,23.293l-16.03,-5.209l0,16.855l-24.491,-0l0,-16.855l-16.03,5.209l-7.568,-23.293l16.03,-5.208l-9.907,-13.636l19.814,-14.395l9.907,13.636l9.906,-13.636Z" style="fill:#bfbfbf;"/><path d="M1956.08,381.944l19.814,14.396l-9.907,13.636l16.03,5.208l-7.568,23.292l-16.03,-5.208l0,16.854l-24.491,0l0,-16.854l-16.03,5.208l-7.568,-23.292l16.03,-5.208l-9.907,-13.636l19.814,-14.396l9.907,13.636l9.906,-13.636Z" style="fill:#bfbfbf;"/><path d="M1956.08,763.889l19.814,14.395l-9.907,13.636l16.03,5.208l-7.568,23.293l-16.03,-5.209l0,16.855l-24.491,-0l0,-16.855l-16.03,5.209l-7.568,-23.293l16.03,-5.208l-9.907,-13.636l19.814,-14.395l9.907,13.635l9.906,-13.635Z" style="fill:#bfbfbf;"/><path d="M1956.08,1145.83l19.814,14.396l-9.907,13.635l16.03,5.209l-7.568,23.292l-16.03,-5.208l0,16.854l-24.491,0l0,-16.854l-16.03,5.208l-7.568,-23.292l16.03,-5.209l-9.907,-13.635l19.814,-14.396l9.907,13.636l9.906,-13.636Z" style="fill:#bfbfbf;"/><path d="M1956.08,1527.78l19.814,14.395l-9.907,13.636l16.03,5.208l-7.568,23.293l-16.03,-5.209l0,16.855l-24.491,-0l0,-16.855l-16.03,5.209l-7.568,-23.293l16.03,-5.208l-9.907,-13.636l19.814,-14.395l9.907,13.635l9.906,-13.635Z" style="fill:#bfbfbf;"/><path d="M1956.08,1909.72l19.814,14.396l-9.907,13.635l16.03,5.209l-7.568,23.292l-16.03,-5.208l0,16.854l-24.491,0l0,-16.854l-16.03,5.208l-7.568,-23.292l16.03,-5.209l-9.907,-13.635l19.814,-14.396l9.907,13.636l9.906,-13.636Z" style="fill:#bfbfbf;"/></svg>