<?xml version="1.0" encoding="UTF-8" standalone="no"?><!DOCTYPE svg PUBLIC "-//W3C//DTD SVG 1.1//EN" "http://www.w3.org/Graphics/SVG/1.1/DTD/svg11.dtd"><svg width="100%" height="100%" viewBox="0 0 5000 1667" version="1.1" xmlns="http://www.w3.org/2000/svg" xmlns:xlink="http://www.w3.org/1999/xlink" xml:space="preserve" xmlns:serif="http://www.serif.com/" style="fill-rule:evenodd;clip-rule:evenodd;stroke-linejoin:round;stroke-miterlimit:2;"><rect id="logo-full-white" x="0" y="0" width="5000" height="1666.67" style="fill:none;"/><clipPath id="_clip1"><rect x="0" y="0" width="5000" height="1666.67"/></clipPath><g clip-path="url(#_clip1)"><path d="M1273.73,1054.54l267.102,-0l-333.253,-565.65l-321.739,628.564c-10.692,20.56 -23.233,35.569 -37.626,45.027c-14.392,9.458 -32.69,14.187 -54.895,14.187c-21.383,-0 -38.242,-6.169 -50.578,-18.505c-12.337,-12.336 -20.972,-30.84 -25.906,-55.512l-108.226,-563.003l-296.399,577.806c-10.691,20.56 -23.028,35.569 -37.008,45.027c-13.981,9.458 -32.486,14.187 -55.513,14.187c-21.383,-0 -38.242,-6.169 -50.578,-18.505c-12.336,-12.336 -20.972,-30.84 -25.906,-55.512l-140.632,-720.43c-5.757,-28.784 -1.85,-51.811 11.72,-69.082c13.569,-17.271 33.924,-25.906 61.063,-25.906c20.561,0 37.214,5.963 49.962,17.888c12.747,11.924 21.177,30.223 25.289,54.895l104.293,578.554l301.565,-592.123c10.691,-20.561 22.822,-35.57 36.392,-45.027c13.569,-9.458 30.223,-14.187 49.961,-14.187c18.915,0 33.924,5.963 45.027,17.888c11.102,11.924 19.121,31.045 24.055,57.363l106.583,582.874l301.743,-600.145c9.869,-19.738 20.971,-34.336 33.307,-43.793c11.412,-8.749 26.342,-13.451 44.791,-14.107l0.443,-0.015c1.352,-0.043 2.722,-0.065 4.111,-0.065c21.943,0 38.754,5.132 50.433,15.396c12.199,10.492 25.395,31.481 36.908,51.219l434.232,720.43c10.691,17.27 15.214,33.718 13.569,49.344c-1.644,15.626 -8.429,28.373 -20.354,38.242c-11.925,9.869 -28.579,14.804 -49.961,14.804c-2.45,-0 -4.846,-0.062 -7.191,-0.184c-1.946,0.122 -3.935,0.184 -5.967,0.184l-379.584,-0c-22.205,-0 -39.064,-4.318 -50.578,-12.953c-11.514,-8.636 -17.27,-20.766 -17.27,-36.392c-0,-21.383 5.756,-38.859 17.27,-52.428c11.514,-13.57 27.962,-20.355 49.345,-20.355Z" style="fill:#fff;"/><g><path d="M2156.62,860.181c-5.077,0 -9.088,-1.489 -12.031,-4.467c-2.943,-2.979 -4.989,-7.413 -6.14,-13.303l-41.646,-216.415c-1.322,-6.803 -0.4,-12.218 2.764,-16.244c3.164,-4.027 7.909,-6.04 14.237,-6.04c4.769,-0 8.651,1.378 11.646,4.136c2.995,2.757 4.983,7.081 5.962,12.971l36.837,202.598l-13.322,-0l104.319,-205.487c2.539,-4.977 5.424,-8.591 8.657,-10.842c3.233,-2.251 7.183,-3.376 11.852,-3.376c4.502,-0 8.081,1.429 10.739,4.289c2.657,2.859 4.594,7.472 5.812,13.837l37.087,201.579l-11.897,-0l103.662,-206.155c2.301,-4.602 4.924,-8.011 7.869,-10.227c2.945,-2.216 6.769,-3.323 11.471,-3.323c7.207,-0 12.046,2.335 14.516,7.006c2.47,4.67 1.979,10.372 -1.473,17.104l-111.205,218.141c-2.539,4.91 -5.509,8.507 -8.91,10.792c-3.401,2.284 -7.759,3.426 -13.074,3.426c-5.073,0 -9.1,-1.489 -12.08,-4.467c-2.981,-2.979 -5.046,-7.413 -6.196,-13.303l-36.269,-191.018l7.883,-0l-99.192,194.57c-2.535,4.91 -5.444,8.507 -8.726,10.792c-3.283,2.284 -7.667,3.426 -13.152,3.426Z" style="fill:#fff;fill-rule:nonzero;"/><path d="M2447.73,860.181c-4.431,0 -8.102,-1.041 -11.012,-3.123c-2.909,-2.082 -4.694,-4.858 -5.355,-8.328c-0.661,-3.47 0.278,-7.287 2.817,-11.451l133.54,-220.88c2.706,-4.432 5.717,-7.654 9.035,-9.667c3.318,-2.014 7.361,-3.02 12.131,-3.02c5.006,-0 9.134,1.235 12.383,3.704c3.249,2.47 5.533,6.175 6.85,11.115l62.105,217.785c1.626,5.452 1.965,9.913 1.019,13.383c-0.946,3.47 -2.757,6.084 -5.431,7.843c-2.674,1.76 -5.939,2.639 -9.795,2.639c-5.277,0 -9.38,-1.388 -12.308,-4.164c-2.928,-2.776 -5.137,-6.955 -6.625,-12.537l-14.524,-55.079l12.604,7.766l-149.768,-0l15.96,-7.009l-35.044,59.75c-2.134,3.76 -4.715,6.578 -7.743,8.456c-3.029,1.878 -6.642,2.817 -10.839,2.817Zm136.529,-212.752l-73.355,125.329l-7.944,-6.441l124.232,-0l-8.896,6.947l-33.324,-125.835l-0.713,-0Z" style="fill:#fff;fill-rule:nonzero;"/><path d="M2784.68,860.181c-5.481,0 -9.88,-1.43 -13.196,-4.289c-3.316,-2.86 -5.754,-7.066 -7.312,-12.618l-60.124,-214.233c-1.15,-4.602 -1.193,-8.586 -0.128,-11.952c1.066,-3.366 3.036,-5.997 5.913,-7.891c2.876,-1.895 6.327,-2.842 10.354,-2.842c4.669,-0 8.526,1.185 11.571,3.554c3.045,2.37 5.345,6.6 6.9,12.69l55.169,203.595l-13.367,-0l121.833,-206.796c2.71,-4.602 5.621,-7.926 8.735,-9.973c3.114,-2.047 7.09,-3.07 11.93,-3.07c5.006,-0 8.888,1.133 11.646,3.398c2.757,2.266 4.339,5.227 4.746,8.883c0.406,3.655 -0.66,7.53 -3.199,11.623l-129.537,216.21c-2.772,4.739 -5.834,8.209 -9.185,10.41c-3.352,2.201 -7.601,3.301 -12.749,3.301Z" style="fill:#fff;fill-rule:nonzero;"/><path d="M2960.02,857.537c-6.974,-0 -12.017,-1.845 -15.128,-5.534c-3.112,-3.689 -4.178,-8.935 -3.199,-15.737l33.508,-211.84c0.983,-6.057 3.277,-10.583 6.881,-13.578c3.603,-2.995 8.4,-4.492 14.39,-4.492l128.858,-0c5.078,-0 8.986,1.007 11.727,3.02c2.741,2.013 4.111,4.983 4.111,8.91c0,5.789 -1.633,10.224 -4.898,13.302c-3.266,3.079 -7.488,4.618 -12.665,4.618l-114.652,-0l-12.592,78.906l104.33,-0c5.077,-0 8.944,1.007 11.602,3.02c2.657,2.013 3.986,4.983 3.986,8.91c-0,5.79 -1.634,10.224 -4.902,13.302c-3.268,3.079 -7.489,4.618 -12.662,4.618l-107.125,-0l-13.199,82.725l111.706,-0c5.077,-0 8.986,1.007 11.727,3.02c2.741,2.013 4.111,4.983 4.111,8.91c0,5.789 -1.633,10.224 -4.899,13.302c-3.266,3.079 -7.487,4.618 -12.665,4.618l-128.351,-0Z" style="fill:#fff;fill-rule:nonzero;"/><path d="M3242.7,860.181c-4.431,0 -8.101,-1.041 -11.011,-3.123c-2.91,-2.082 -4.695,-4.858 -5.356,-8.328c-0.66,-3.47 0.279,-7.287 2.817,-11.451l133.54,-220.88c2.706,-4.432 5.718,-7.654 9.036,-9.667c3.317,-2.014 7.361,-3.02 12.13,-3.02c5.007,-0 9.134,1.235 12.384,3.704c3.249,2.47 5.532,6.175 6.85,11.115l62.105,217.785c1.625,5.452 1.965,9.913 1.018,13.383c-0.946,3.47 -2.756,6.084 -5.43,7.843c-2.674,1.76 -5.939,2.639 -9.795,2.639c-5.278,0 -9.38,-1.388 -12.309,-4.164c-2.928,-2.776 -5.136,-6.955 -6.624,-12.537l-14.525,-55.079l12.604,7.766l-149.768,-0l15.961,-7.009l-35.044,59.75c-2.134,3.76 -4.715,6.578 -7.744,8.456c-3.028,1.878 -6.641,2.817 -10.839,2.817Zm136.53,-212.752l-73.356,125.329l-7.944,-6.441l124.232,-0l-8.896,6.947l-33.324,-125.835l-0.712,-0Z" style="fill:#fff;fill-rule:nonzero;"/><path d="M3522.7,860.181c-5.753,0 -10.007,-1.911 -12.763,-5.734c-2.755,-3.822 -3.558,-9.185 -2.407,-16.088l33.864,-213.632c0.979,-6.157 3.279,-10.758 6.9,-13.803c3.62,-3.046 8.475,-4.568 14.566,-4.568l74.82,-0c27.378,-0 48.046,6.089 62.004,18.268c13.959,12.178 20.938,28.904 20.938,50.178c-0,17.602 -4.029,32.221 -12.086,43.856c-8.057,11.635 -19.117,20.311 -33.179,26.028c-14.062,5.718 -30.032,8.422 -47.909,8.114l-0,-4.932l7.409,-0c10.685,-0 19.47,3.062 26.354,9.185c6.885,6.124 12.431,14.699 16.64,25.725l20.397,53.293c1.963,5.006 2.717,9.312 2.26,12.918c-0.456,3.605 -2.106,6.372 -4.949,8.3c-2.843,1.928 -6.817,2.892 -11.924,2.892c-4.94,0 -8.89,-1.277 -11.849,-3.83c-2.96,-2.553 -5.507,-6.623 -7.641,-12.208l-24.45,-64.081c-3.5,-9.513 -8.137,-16.238 -13.912,-20.178c-5.775,-3.939 -14.064,-5.909 -24.868,-5.909l-43.394,-0l-13.711,87.835c-0.913,6.09 -3.12,10.675 -6.619,13.753c-3.5,3.079 -8.331,4.618 -14.491,4.618Zm39.336,-134.286l66.441,0c17.733,0 31.534,-4.17 41.402,-12.509c9.868,-8.339 14.802,-20.323 14.802,-35.951c0,-13.791 -4.143,-24.152 -12.431,-31.083c-8.287,-6.931 -21.416,-10.397 -39.386,-10.397l-56.555,0l-14.273,89.94Z" style="fill:#fff;fill-rule:nonzero;"/><path d="M3818.03,860.181c-5.919,0 -10.215,-1.911 -12.887,-5.734c-2.672,-3.822 -3.519,-9.102 -2.539,-15.838l31.782,-201.139l-72.61,-0c-5.244,-0 -9.338,-1.168 -12.283,-3.502c-2.945,-2.334 -4.418,-5.465 -4.418,-9.391c0,-5.82 1.718,-10.311 5.153,-13.475c3.434,-3.164 7.945,-4.746 13.53,-4.746l184.906,-0c5.315,-0 9.427,1.066 12.337,3.198c2.909,2.132 4.364,5.245 4.364,9.339c0,5.823 -1.658,10.375 -4.974,13.655c-3.316,3.281 -7.884,4.922 -13.703,4.922l-75.555,-0l-32.394,204.34c-0.913,5.92 -3.052,10.461 -6.418,13.625c-3.367,3.164 -8.13,4.746 -14.291,4.746Z" style="fill:#fff;fill-rule:nonzero;"/><path d="M3974.84,860.181c-6.257,0 -10.74,-1.911 -13.447,-5.734c-2.707,-3.822 -3.486,-9.221 -2.335,-16.194l34.22,-216.065c0.983,-6.16 3.183,-10.78 6.599,-13.859c3.417,-3.078 8.17,-4.617 14.26,-4.617c6.09,-0 10.447,1.869 13.069,5.608c2.622,3.739 3.357,9.179 2.207,16.32l-34.22,215.814c-0.913,6.09 -2.993,10.734 -6.241,13.931c-3.247,3.198 -7.951,4.796 -14.112,4.796Z" style="fill:#fff;fill-rule:nonzero;"/><path d="M4142.26,860.894c-10.388,-0 -20.69,-0.765 -30.905,-2.294c-10.216,-1.529 -20.049,-4.016 -29.5,-7.462c-9.451,-3.446 -18.231,-7.819 -26.34,-13.119c-3.689,-2.271 -6.133,-5.022 -7.331,-8.253c-1.199,-3.231 -1.477,-6.487 -0.833,-9.77c0.644,-3.283 2.066,-6.117 4.265,-8.503c2.199,-2.387 4.974,-3.816 8.325,-4.287c3.351,-0.471 7.076,0.512 11.173,2.951c11.368,7.136 23.288,12.114 35.762,14.933c12.474,2.819 25.35,4.228 38.629,4.228c18.004,-0 32.364,-3.636 43.083,-10.908c10.718,-7.273 16.077,-17.027 16.077,-29.263c0,-8.8 -3.159,-16.267 -9.478,-22.402c-6.318,-6.134 -17.329,-10.952 -33.031,-14.451l-37.8,-9.058c-16.927,-3.967 -30.429,-11.03 -40.505,-21.188c-10.076,-10.158 -15.114,-24.197 -15.114,-42.119c-0,-11.869 2.51,-22.535 7.529,-31.999c5.02,-9.464 11.989,-17.554 20.907,-24.269c8.918,-6.716 19.203,-11.838 30.855,-15.368c11.651,-3.529 24.076,-5.294 37.273,-5.294c13.205,0 27.002,1.894 41.39,5.681c14.389,3.787 27.163,9.944 38.323,18.468c3.281,2.272 5.48,5.057 6.597,8.356c1.117,3.3 1.336,6.549 0.657,9.748c-0.679,3.199 -2.119,5.847 -4.32,7.944c-2.201,2.097 -5.043,3.255 -8.528,3.474c-3.485,0.219 -7.529,-1.093 -12.131,-3.936c-8.792,-6.294 -18.706,-10.894 -29.741,-13.8c-11.036,-2.906 -22.022,-4.359 -32.959,-4.359c-11.346,-0 -21.51,1.784 -30.493,5.352c-8.984,3.569 -16.007,8.514 -21.071,14.836c-5.064,6.323 -7.596,13.783 -7.596,22.382c-0,10.674 2.854,18.661 8.562,23.96c5.708,5.3 14.114,9.36 25.218,12.181l37.805,9.057c21.826,5.055 38.007,12.943 48.544,23.663c10.536,10.72 15.804,23.697 15.804,38.932c0,12.444 -2.594,23.423 -7.782,32.937c-5.189,9.514 -12.352,17.434 -21.491,23.76c-9.139,6.326 -19.662,11.117 -31.568,14.374c-11.906,3.256 -24.66,4.885 -38.261,4.885Z" style="fill:#fff;fill-rule:nonzero;"/><path d="M4272.6,860.181c-4.431,0 -8.102,-1.041 -11.011,-3.123c-2.91,-2.082 -4.695,-4.858 -5.356,-8.328c-0.66,-3.47 0.279,-7.287 2.817,-11.451l133.54,-220.88c2.706,-4.432 5.717,-7.654 9.035,-9.667c3.318,-2.014 7.362,-3.02 12.131,-3.02c5.006,-0 9.134,1.235 12.383,3.704c3.25,2.47 5.533,6.175 6.851,11.115l62.105,217.785c1.625,5.452 1.965,9.913 1.018,13.383c-0.946,3.47 -2.756,6.084 -5.43,7.843c-2.674,1.76 -5.939,2.639 -9.795,2.639c-5.278,0 -9.381,-1.388 -12.309,-4.164c-2.928,-2.776 -5.136,-6.955 -6.625,-12.537l-14.524,-55.079l12.604,7.766l-149.768,-0l15.961,-7.009l-35.044,59.75c-2.134,3.76 -4.716,6.578 -7.744,8.456c-3.028,1.878 -6.641,2.817 -10.839,2.817Zm136.53,-212.752l-73.356,125.329l-7.944,-6.441l124.232,-0l-8.896,6.947l-33.324,-125.835l-0.712,-0Z" style="fill:#fff;fill-rule:nonzero;"/><path d="M4551.9,860.181c-5.344,0 -9.378,-1.785 -12.1,-5.355c-2.722,-3.571 -3.627,-8.603 -2.714,-15.098l35.083,-220.279c0.98,-5.485 2.967,-9.479 5.962,-11.983c2.995,-2.503 6.709,-3.754 11.14,-3.754c4.773,-0 8.369,0.922 10.789,2.766c2.419,1.845 4.863,4.814 7.331,8.907l114.156,195.785l-8.189,-0l30.112,-190.457c0.983,-5.819 3.099,-10.108 6.346,-12.865c3.248,-2.758 7.748,-4.136 13.5,-4.136c5.344,-0 9.21,1.785 11.596,5.355c2.387,3.57 3.088,8.519 2.104,14.847l-34.826,220.023c-0.746,5.415 -2.473,9.476 -5.18,12.183c-2.708,2.707 -6.277,4.061 -10.709,4.061c-4.769,0 -8.574,-0.981 -11.417,-2.945c-2.843,-1.963 -5.534,-5.042 -8.072,-9.235l-114.151,-195.278l8.083,0l-30.117,190.457c-0.742,5.752 -2.611,10.024 -5.606,12.815c-2.995,2.791 -7.369,4.186 -13.121,4.186Z" style="fill:#fff;fill-rule:nonzero;"/><path d="M4889.61,860.894c-10.388,-0 -20.689,-0.765 -30.905,-2.294c-10.215,-1.529 -20.048,-4.016 -29.499,-7.462c-9.451,-3.446 -18.231,-7.819 -26.34,-13.119c-3.689,-2.271 -6.133,-5.022 -7.332,-8.253c-1.198,-3.231 -1.476,-6.487 -0.832,-9.77c0.644,-3.283 2.065,-6.117 4.264,-8.503c2.199,-2.387 4.974,-3.816 8.326,-4.287c3.351,-0.471 7.075,0.512 11.173,2.951c11.367,7.136 23.288,12.114 35.762,14.933c12.473,2.819 25.35,4.228 38.629,4.228c18.003,-0 32.364,-3.636 43.082,-10.908c10.719,-7.273 16.078,-17.027 16.078,-29.263c-0,-8.8 -3.159,-16.267 -9.478,-22.402c-6.318,-6.134 -17.329,-10.952 -33.031,-14.451l-37.8,-9.058c-16.927,-3.967 -30.429,-11.03 -40.505,-21.188c-10.076,-10.158 -15.115,-24.197 -15.115,-42.119c0,-11.869 2.51,-22.535 7.53,-31.999c5.019,-9.464 11.988,-17.554 20.906,-24.269c8.919,-6.716 19.204,-11.838 30.855,-15.368c11.652,-3.529 24.076,-5.294 37.274,-5.294c13.205,0 27.001,1.894 41.39,5.681c14.389,3.787 27.163,9.944 38.323,18.468c3.281,2.272 5.48,5.057 6.597,8.356c1.117,3.3 1.336,6.549 0.657,9.748c-0.679,3.199 -2.119,5.847 -4.32,7.944c-2.201,2.097 -5.044,3.255 -8.529,3.474c-3.485,0.219 -7.528,-1.093 -12.13,-3.936c-8.792,-6.294 -18.706,-10.894 -29.742,-13.8c-11.035,-2.906 -22.022,-4.359 -32.959,-4.359c-11.345,-0 -21.51,1.784 -30.493,5.352c-8.983,3.569 -16.007,8.514 -21.071,14.836c-5.064,6.323 -7.596,13.783 -7.596,22.382c0,10.674 2.854,18.661 8.562,23.96c5.708,5.3 14.114,9.36 25.219,12.181l37.805,9.057c21.826,5.055 38.007,12.943 48.544,23.663c10.536,10.72 15.804,23.697 15.804,38.932c0,12.444 -2.594,23.423 -7.782,32.937c-5.189,9.514 -12.353,17.434 -21.492,23.76c-9.139,6.326 -19.661,11.117 -31.567,14.374c-11.906,3.256 -24.66,4.885 -38.262,4.885Z" style="fill:#fff;fill-rule:nonzero;"/></g><rect x="1911.49" y="287.229" width="10.341" height="889.434" style="fill:#fff;"/></g></svg>