<?xml version="1.0" encoding="UTF-8" standalone="no"?><!DOCTYPE svg PUBLIC "-//W3C//DTD SVG 1.1//EN" "http://www.w3.org/Graphics/SVG/1.1/DTD/svg11.dtd"><svg width="100%" height="100%" viewBox="0 0 2292 2292" version="1.1" xmlns="http://www.w3.org/2000/svg" xmlns:xlink="http://www.w3.org/1999/xlink" xml:space="preserve" xmlns:serif="http://www.serif.com/" style="fill-rule:evenodd;clip-rule:evenodd;stroke-linejoin:round;stroke-miterlimit:2;"><rect id="logo-mark-white" x="0" y="0" width="2291.67" height="2291.67" style="fill:none;"/><clipPath id="_clip1"><rect x="0" y="0" width="2291.67" height="2291.67"/></clipPath><g clip-path="url(#_clip1)"><path d="M1679.16,1467.66l352.122,-0l-439.328,-745.697l-424.15,828.637c-14.094,27.104 -30.628,46.891 -49.601,59.359c-18.974,12.468 -43.097,18.702 -72.37,18.702c-28.188,-0 -50.414,-8.131 -66.677,-24.394c-16.262,-16.263 -27.646,-40.657 -34.151,-73.182l-142.674,-742.207l-390.744,761.722c-14.094,27.104 -30.357,46.891 -48.788,59.359c-18.431,12.468 -42.825,18.702 -73.182,18.702c-28.189,-0 -50.415,-8.131 -66.677,-24.394c-16.263,-16.263 -27.647,-40.657 -34.152,-73.182l-185.395,-949.743c-7.589,-37.947 -2.439,-68.304 15.45,-91.072c17.889,-22.768 44.722,-34.151 80.5,-34.151c27.105,-0 49.059,7.86 65.864,23.581c16.805,15.72 27.918,39.843 33.339,72.369l137.49,762.708l397.553,-780.597c14.095,-27.105 30.086,-46.891 47.975,-59.359c17.889,-12.468 39.844,-18.702 65.864,-18.702c24.936,-0 44.723,7.86 59.359,23.581c14.637,15.72 25.207,40.927 31.713,75.621l140.508,768.405l397.788,-791.173c13.01,-26.02 27.646,-45.264 43.909,-57.732c15.044,-11.534 34.726,-17.733 59.048,-18.597l0.584,-0.02c1.782,-0.057 3.588,-0.085 5.419,-0.085c28.927,-0 51.089,6.765 66.485,20.296c16.083,13.831 33.479,41.502 48.657,67.522l572.448,949.743c14.094,22.768 20.057,44.452 17.889,65.051c-2.168,20.6 -11.113,37.404 -26.833,50.415c-15.721,13.01 -37.676,19.515 -65.865,19.515c-3.228,-0 -6.388,-0.081 -9.478,-0.242c-2.567,0.161 -5.189,0.242 -7.868,0.242l-500.405,-0c-29.273,-0 -51.499,-5.692 -66.677,-17.076c-15.179,-11.384 -22.768,-27.376 -22.768,-47.975c0,-28.189 7.589,-51.228 22.768,-69.117c15.178,-17.889 36.862,-26.833 65.051,-26.833Z" style="fill:#fff;"/><g><path d="M1011.73,1835.23c-2.284,0 -4.089,-0.67 -5.413,-2.01c-1.324,-1.34 -2.245,-3.335 -2.763,-5.985l-18.738,-97.373c-0.594,-3.061 -0.18,-5.497 1.244,-7.309c1.423,-1.812 3.559,-2.718 6.406,-2.718c2.146,0 3.892,0.621 5.24,1.861c1.347,1.241 2.242,3.186 2.682,5.836l16.575,91.157l-5.994,-0l46.937,-92.457c1.142,-2.239 2.44,-3.865 3.895,-4.878c1.454,-1.012 3.232,-1.519 5.332,-1.519c2.026,0 3.636,0.644 4.832,1.93c1.196,1.287 2.067,3.362 2.615,6.226l16.687,90.698l-5.353,-0l46.642,-92.757c1.035,-2.071 2.215,-3.604 3.54,-4.601c1.325,-0.997 3.046,-1.496 5.161,-1.496c3.243,0 5.42,1.051 6.531,3.153c1.112,2.101 0.891,4.666 -0.662,7.695l-50.036,98.15c-1.142,2.209 -2.478,3.828 -4.008,4.856c-1.531,1.028 -3.492,1.541 -5.883,1.541c-2.283,0 -4.094,-0.67 -5.435,-2.01c-1.341,-1.34 -2.27,-3.335 -2.788,-5.985l-16.319,-85.946l3.547,-0l-44.63,87.544c-1.141,2.209 -2.449,3.828 -3.926,4.856c-1.477,1.028 -3.45,1.541 -5.918,1.541Z" style="fill:#fff;fill-rule:nonzero;"/><path d="M1142.71,1835.23c-1.994,0 -3.646,-0.468 -4.955,-1.405c-1.309,-0.936 -2.112,-2.186 -2.409,-3.747c-0.298,-1.561 0.125,-3.279 1.267,-5.152l60.085,-99.382c1.217,-1.994 2.572,-3.444 4.065,-4.35c1.493,-0.906 3.312,-1.359 5.458,-1.359c2.252,0 4.11,0.556 5.572,1.667c1.462,1.111 2.489,2.778 3.082,5.001l27.943,97.989c0.732,2.453 0.884,4.461 0.458,6.022c-0.425,1.561 -1.24,2.738 -2.443,3.529c-1.203,0.792 -2.672,1.187 -4.407,1.187c-2.375,0 -4.221,-0.624 -5.538,-1.873c-1.318,-1.249 -2.311,-3.129 -2.981,-5.641l-6.535,-24.782l5.671,3.494l-67.386,0l7.181,-3.154l-15.767,26.884c-0.961,1.692 -2.122,2.96 -3.485,3.805c-1.362,0.845 -2.988,1.267 -4.876,1.267Zm61.429,-95.725l-33.005,56.39l-3.575,-2.898l55.897,0l-4.002,3.126l-14.994,-56.618l-0.321,0Z" style="fill:#fff;fill-rule:nonzero;"/><path d="M1294.32,1835.23c-2.466,0 -4.445,-0.643 -5.937,-1.929c-1.492,-1.287 -2.589,-3.179 -3.29,-5.678l-27.052,-96.391c-0.518,-2.071 -0.537,-3.863 -0.057,-5.378c0.479,-1.514 1.365,-2.698 2.66,-3.55c1.294,-0.853 2.847,-1.279 4.658,-1.279c2.101,0 3.837,0.533 5.207,1.599c1.37,1.067 2.405,2.97 3.104,5.71l24.823,91.605l-6.014,-0l54.817,-93.045c1.219,-2.071 2.529,-3.567 3.93,-4.488c1.401,-0.921 3.19,-1.381 5.368,-1.381c2.252,0 3.999,0.51 5.24,1.529c1.24,1.02 1.952,2.352 2.135,3.997c0.183,1.644 -0.297,3.388 -1.439,5.23l-58.284,97.28c-1.247,2.133 -2.625,3.694 -4.133,4.684c-1.508,0.99 -3.42,1.485 -5.736,1.485Z" style="fill:#fff;fill-rule:nonzero;"/><path d="M1373.21,1834.04c-3.137,-0 -5.406,-0.83 -6.807,-2.49c-1.4,-1.66 -1.879,-4.02 -1.438,-7.081l15.076,-95.314c0.442,-2.726 1.474,-4.762 3.096,-6.11c1.621,-1.347 3.779,-2.021 6.475,-2.021l57.978,0c2.284,0 4.043,0.453 5.276,1.359c1.233,0.906 1.85,2.242 1.85,4.009c-0,2.605 -0.735,4.6 -2.204,5.985c-1.47,1.385 -3.369,2.078 -5.699,2.078l-51.586,-0l-5.666,35.502l46.943,0c2.284,0 4.024,0.453 5.219,1.359c1.196,0.906 1.794,2.242 1.794,4.009c-0,2.605 -0.735,4.6 -2.206,5.985c-1.47,1.385 -3.369,2.078 -5.697,2.078l-48.199,0l-5.939,37.221l50.261,0c2.284,0 4.043,0.453 5.276,1.359c1.233,0.906 1.85,2.242 1.85,4.009c0,2.605 -0.735,4.6 -2.204,5.985c-1.47,1.385 -3.369,2.078 -5.699,2.078l-57.75,-0Z" style="fill:#fff;fill-rule:nonzero;"/><path d="M1500.4,1835.23c-1.994,0 -3.645,-0.468 -4.955,-1.405c-1.309,-0.936 -2.112,-2.186 -2.409,-3.747c-0.297,-1.561 0.125,-3.279 1.267,-5.152l60.085,-99.382c1.217,-1.994 2.572,-3.444 4.065,-4.35c1.493,-0.906 3.312,-1.359 5.458,-1.359c2.253,0 4.11,0.556 5.572,1.667c1.462,1.111 2.489,2.778 3.082,5.001l27.943,97.989c0.732,2.453 0.885,4.461 0.459,6.022c-0.426,1.561 -1.24,2.738 -2.444,3.529c-1.203,0.792 -2.672,1.187 -4.407,1.187c-2.374,0 -4.22,-0.624 -5.538,-1.873c-1.317,-1.249 -2.311,-3.129 -2.98,-5.641l-6.535,-24.782l5.67,3.494l-67.386,0l7.181,-3.154l-15.767,26.884c-0.96,1.692 -2.122,2.96 -3.484,3.805c-1.363,0.845 -2.988,1.267 -4.877,1.267Zm61.43,-95.725l-33.006,56.39l-3.574,-2.898l55.897,0l-4.003,3.126l-14.994,-56.618l-0.32,0Z" style="fill:#fff;fill-rule:nonzero;"/><path d="M1626.38,1835.23c-2.588,0 -4.503,-0.86 -5.742,-2.579c-1.24,-1.72 -1.601,-4.133 -1.084,-7.239l15.237,-96.121c0.441,-2.77 1.476,-4.841 3.105,-6.211c1.628,-1.37 3.813,-2.055 6.553,-2.055l33.665,0c12.318,0 21.617,2.74 27.898,8.219c6.28,5.48 9.42,13.006 9.42,22.577c0,7.92 -1.812,14.498 -5.438,19.733c-3.625,5.235 -8.601,9.139 -14.928,11.711c-6.327,2.572 -13.513,3.789 -21.556,3.651l-0,-2.219l3.334,-0c4.807,-0 8.76,1.377 11.857,4.132c3.098,2.756 5.593,6.614 7.487,11.575l9.178,23.978c0.883,2.253 1.222,4.19 1.016,5.813c-0.205,1.622 -0.947,2.867 -2.226,3.734c-1.279,0.868 -3.068,1.301 -5.365,1.301c-2.223,0 -4,-0.574 -5.332,-1.723c-1.332,-1.149 -2.478,-2.98 -3.438,-5.493l-11.001,-28.832c-1.574,-4.28 -3.661,-7.306 -6.259,-9.079c-2.598,-1.772 -6.328,-2.659 -11.189,-2.659l-19.525,0l-6.169,39.521c-0.411,2.74 -1.404,4.803 -2.978,6.188c-1.575,1.385 -3.748,2.077 -6.52,2.077Zm17.699,-60.42l29.894,0c7.979,0 14.188,-1.876 18.628,-5.628c4.44,-3.752 6.66,-9.144 6.66,-16.176c0,-6.205 -1.864,-10.867 -5.593,-13.985c-3.729,-3.119 -9.636,-4.678 -17.721,-4.678l-25.446,-0l-6.422,40.467Z" style="fill:#fff;fill-rule:nonzero;"/><path d="M1759.26,1835.23c-2.664,0 -4.596,-0.86 -5.799,-2.579c-1.202,-1.72 -1.583,-4.096 -1.142,-7.127l14.3,-90.5l-32.67,0c-2.36,0 -4.202,-0.525 -5.527,-1.575c-1.325,-1.051 -1.987,-2.459 -1.987,-4.226c-0,-2.618 0.772,-4.639 2.318,-6.063c1.545,-1.423 3.575,-2.135 6.088,-2.135l83.196,0c2.391,0 4.241,0.48 5.551,1.439c1.309,0.959 1.963,2.36 1.963,4.202c0,2.62 -0.746,4.668 -2.238,6.144c-1.492,1.476 -3.547,2.214 -6.165,2.214l-33.995,0l-14.575,91.941c-0.411,2.663 -1.374,4.707 -2.888,6.13c-1.515,1.424 -3.658,2.135 -6.43,2.135Z" style="fill:#fff;fill-rule:nonzero;"/><path d="M1829.82,1835.23c-2.815,0 -4.832,-0.86 -6.05,-2.579c-1.218,-1.72 -1.568,-4.149 -1.051,-7.287l15.397,-97.215c0.443,-2.772 1.433,-4.851 2.97,-6.236c1.537,-1.385 3.676,-2.078 6.416,-2.078c2.74,0 4.7,0.841 5.88,2.524c1.179,1.682 1.511,4.13 0.993,7.343l-15.397,97.102c-0.411,2.741 -1.347,4.83 -2.808,6.269c-1.461,1.438 -3.578,2.157 -6.35,2.157Z" style="fill:#fff;fill-rule:nonzero;"/><path d="M1905.14,1835.55c-4.674,0 -9.309,-0.344 -13.905,-1.032c-4.596,-0.688 -9.021,-1.807 -13.273,-3.358c-4.252,-1.55 -8.203,-3.518 -11.851,-5.902c-1.66,-1.022 -2.76,-2.26 -3.299,-3.713c-0.539,-1.454 -0.664,-2.919 -0.374,-4.396c0.289,-1.477 0.929,-2.753 1.918,-3.826c0.99,-1.074 2.238,-1.717 3.746,-1.929c1.508,-0.212 3.184,0.23 5.027,1.328c5.115,3.211 10.479,5.45 16.091,6.719c5.612,1.268 11.406,1.902 17.381,1.902c8.1,-0 14.562,-1.636 19.384,-4.908c4.823,-3.272 7.234,-7.661 7.234,-13.167c-0,-3.959 -1.422,-7.318 -4.264,-10.079c-2.843,-2.76 -7.797,-4.927 -14.863,-6.502l-17.007,-4.075c-7.616,-1.786 -13.691,-4.963 -18.225,-9.534c-4.533,-4.57 -6.8,-10.887 -6.8,-18.951c-0,-5.34 1.129,-10.139 3.387,-14.397c2.259,-4.258 5.394,-7.898 9.407,-10.92c4.013,-3.021 8.64,-5.326 13.883,-6.914c5.242,-1.588 10.833,-2.382 16.771,-2.382c5.941,-0 12.149,0.852 18.623,2.556c6.474,1.704 12.221,4.474 17.243,8.309c1.476,1.022 2.465,2.276 2.968,3.76c0.502,1.485 0.601,2.947 0.295,4.386c-0.305,1.439 -0.953,2.631 -1.943,3.574c-0.991,0.944 -2.27,1.465 -3.838,1.563c-1.568,0.099 -3.387,-0.492 -5.458,-1.771c-3.956,-2.832 -8.416,-4.902 -13.381,-6.209c-4.966,-1.307 -9.909,-1.961 -14.83,-1.961c-5.105,-0 -9.678,0.803 -13.72,2.408c-4.042,1.606 -7.202,3.831 -9.481,6.675c-2.278,2.845 -3.417,6.202 -3.417,10.071c-0,4.802 1.284,8.396 3.852,10.78c2.568,2.385 6.35,4.212 11.347,5.481l17.01,4.075c9.82,2.274 17.101,5.823 21.841,10.647c4.741,4.823 7.111,10.662 7.111,17.517c0,5.599 -1.167,10.539 -3.501,14.819c-2.335,4.281 -5.558,7.845 -9.67,10.691c-4.112,2.846 -8.846,5.002 -14.203,6.467c-5.357,1.465 -11.096,2.198 -17.216,2.198Z" style="fill:#fff;fill-rule:nonzero;"/><path d="M1963.79,1835.23c-1.993,0 -3.645,-0.468 -4.954,-1.405c-1.309,-0.936 -2.112,-2.186 -2.41,-3.747c-0.297,-1.561 0.126,-3.279 1.268,-5.152l60.084,-99.382c1.218,-1.994 2.573,-3.444 4.066,-4.35c1.493,-0.906 3.312,-1.359 5.458,-1.359c2.252,0 4.109,0.556 5.571,1.667c1.462,1.111 2.49,2.778 3.083,5.001l27.943,97.989c0.731,2.453 0.884,4.461 0.458,6.022c-0.426,1.561 -1.24,2.738 -2.443,3.529c-1.203,0.792 -2.672,1.187 -4.407,1.187c-2.375,0 -4.221,-0.624 -5.538,-1.873c-1.318,-1.249 -2.311,-3.129 -2.981,-5.641l-6.535,-24.782l5.671,3.494l-67.386,0l7.181,-3.154l-15.768,26.884c-0.96,1.692 -2.121,2.96 -3.484,3.805c-1.362,0.845 -2.988,1.267 -4.877,1.267Zm61.43,-95.725l-33.005,56.39l-3.575,-2.898l55.897,0l-4.003,3.126l-14.993,-56.618l-0.321,0Z" style="fill:#fff;fill-rule:nonzero;"/><path d="M2089.45,1835.23c-2.405,0 -4.22,-0.803 -5.445,-2.409c-1.224,-1.607 -1.631,-3.871 -1.221,-6.793l15.786,-99.112c0.44,-2.468 1.335,-4.265 2.682,-5.391c1.348,-1.127 3.018,-1.69 5.012,-1.69c2.148,0 3.766,0.415 4.854,1.245c1.089,0.83 2.189,2.166 3.299,4.008l51.363,88.09l-3.684,0l13.548,-85.693c0.443,-2.618 1.394,-4.548 2.856,-5.789c1.461,-1.24 3.485,-1.861 6.074,-1.861c2.404,0 4.143,0.803 5.217,2.41c1.074,1.606 1.389,3.833 0.947,6.68l-15.67,98.997c-0.336,2.436 -1.113,4.263 -2.331,5.481c-1.218,1.218 -2.824,1.827 -4.818,1.827c-2.145,0 -3.858,-0.441 -5.137,-1.325c-1.279,-0.883 -2.49,-2.268 -3.632,-4.155l-51.36,-87.863l3.637,0l-13.551,85.694c-0.334,2.588 -1.175,4.51 -2.523,5.766c-1.347,1.256 -3.315,1.883 -5.903,1.883Z" style="fill:#fff;fill-rule:nonzero;"/><path d="M2241.4,1835.55c-4.674,0 -9.309,-0.344 -13.905,-1.032c-4.596,-0.688 -9.021,-1.807 -13.273,-3.358c-4.252,-1.55 -8.203,-3.518 -11.851,-5.902c-1.66,-1.022 -2.76,-2.26 -3.299,-3.713c-0.54,-1.454 -0.664,-2.919 -0.375,-4.396c0.29,-1.477 0.93,-2.753 1.919,-3.826c0.989,-1.074 2.238,-1.717 3.746,-1.929c1.508,-0.212 3.183,0.23 5.027,1.328c5.115,3.211 10.478,5.45 16.091,6.719c5.612,1.268 11.406,1.902 17.38,1.902c8.101,-0 14.562,-1.636 19.385,-4.908c4.822,-3.272 7.234,-7.661 7.234,-13.167c-0,-3.959 -1.422,-7.318 -4.265,-10.079c-2.843,-2.76 -7.797,-4.927 -14.862,-6.502l-17.007,-4.075c-7.617,-1.786 -13.691,-4.963 -18.225,-9.534c-4.534,-4.57 -6.801,-10.887 -6.801,-18.951c0,-5.34 1.13,-10.139 3.388,-14.397c2.259,-4.258 5.394,-7.898 9.407,-10.92c4.013,-3.021 8.64,-5.326 13.883,-6.914c5.242,-1.588 10.832,-2.382 16.77,-2.382c5.942,-0 12.149,0.852 18.623,2.556c6.474,1.704 12.222,4.474 17.243,8.309c1.476,1.022 2.466,2.276 2.968,3.76c0.503,1.485 0.602,2.947 0.296,4.386c-0.306,1.439 -0.953,2.631 -1.944,3.574c-0.99,0.944 -2.269,1.465 -3.837,1.563c-1.568,0.099 -3.387,-0.492 -5.458,-1.771c-3.956,-2.832 -8.416,-4.902 -13.382,-6.209c-4.965,-1.307 -9.908,-1.961 -14.829,-1.961c-5.105,-0 -9.678,0.803 -13.72,2.408c-4.042,1.606 -7.202,3.831 -9.481,6.675c-2.278,2.845 -3.418,6.202 -3.418,10.071c0,4.802 1.285,8.396 3.853,10.78c2.568,2.385 6.35,4.212 11.346,5.481l17.01,4.075c9.821,2.274 17.101,5.823 21.842,10.647c4.741,4.823 7.111,10.662 7.111,17.517c0,5.599 -1.167,10.539 -3.502,14.819c-2.334,4.281 -5.557,7.845 -9.669,10.691c-4.112,2.846 -8.847,5.002 -14.204,6.467c-5.356,1.465 -11.095,2.198 -17.215,2.198Z" style="fill:#fff;fill-rule:nonzero;"/></g></g></svg>