<?xml version="1.0" encoding="UTF-8" standalone="no"?><!DOCTYPE svg PUBLIC "-//W3C//DTD SVG 1.1//EN" "http://www.w3.org/Graphics/SVG/1.1/DTD/svg11.dtd"><svg width="100%" height="100%" viewBox="0 0 5000 1667" version="1.1" xmlns="http://www.w3.org/2000/svg" xmlns:xlink="http://www.w3.org/1999/xlink" xml:space="preserve" xmlns:serif="http://www.serif.com/" style="fill-rule:evenodd;clip-rule:evenodd;stroke-linejoin:round;stroke-miterlimit:2;"><rect id="wordmark" x="0" y="0" width="5000" height="1666.67" style="fill:none;"/><clipPath id="_clip1"><rect x="0" y="0" width="5000" height="1666.67"/></clipPath><g clip-path="url(#_clip1)"><g><path d="M104.004,1054.14c-8.743,-0 -15.647,-2.564 -20.715,-7.693c-5.068,-5.128 -8.592,-12.763 -10.573,-22.905l-71.711,-372.644c-2.275,-11.713 -0.688,-21.037 4.76,-27.971c5.447,-6.933 13.619,-10.4 24.515,-10.4c8.212,-0 14.896,2.374 20.053,7.122c5.157,4.748 8.579,12.193 10.267,22.335l63.428,348.852l-22.938,0l179.626,-353.827c4.371,-8.57 9.34,-14.793 14.906,-18.669c5.566,-3.875 12.369,-5.813 20.408,-5.813c7.751,-0 13.915,2.462 18.491,7.385c4.575,4.924 7.911,12.866 10.007,23.826l63.86,347.098l-20.485,0l178.496,-354.978c3.962,-7.924 8.478,-13.794 13.549,-17.609c5.071,-3.815 11.655,-5.722 19.751,-5.722c12.411,-0 20.742,4.021 24.995,12.063c4.253,8.043 3.408,17.86 -2.535,29.452l-191.484,375.616c-4.371,8.455 -9.485,14.649 -15.342,18.582c-5.857,3.933 -13.361,5.9 -22.512,5.9c-8.736,-0 -15.67,-2.564 -20.801,-7.693c-5.132,-5.128 -8.688,-12.763 -10.669,-22.905l-62.451,-328.914l13.573,0l-170.798,335.03c-4.364,8.455 -9.373,14.649 -15.025,18.582c-5.653,3.933 -13.201,5.9 -22.646,5.9Z" style="fill:#18181b;fill-rule:nonzero;"/><path d="M605.258,1054.14c-7.631,-0 -13.951,-1.793 -18.961,-5.378c-5.01,-3.585 -8.084,-8.365 -9.221,-14.34c-1.138,-5.975 0.479,-12.547 4.85,-19.718l229.942,-380.331c4.658,-7.631 9.844,-13.179 15.557,-16.646c5.713,-3.467 12.676,-5.2 20.888,-5.2c8.62,-0 15.728,2.126 21.323,6.379c5.595,4.253 9.527,10.632 11.795,19.138l106.938,375.002c2.799,9.388 3.384,17.069 1.754,23.044c-1.629,5.975 -4.746,10.477 -9.35,13.506c-4.605,3.029 -10.227,4.544 -16.866,4.544c-9.088,-0 -16.152,-2.39 -21.194,-7.17c-5.043,-4.78 -8.845,-11.976 -11.407,-21.587l-25.01,-94.841l21.703,13.372l-257.885,-0l27.483,-12.068l-60.342,102.883c-3.675,6.473 -8.12,11.327 -13.334,14.561c-5.215,3.233 -11.436,4.85 -18.663,4.85Zm235.089,-366.337l-126.311,215.803l-13.679,-11.091l213.915,0l-15.318,11.963l-57.38,-216.675l-1.227,0Z" style="fill:#18181b;fill-rule:nonzero;"/><path d="M1185.46,1054.14c-9.439,-0 -17.013,-2.462 -22.723,-7.386c-5.71,-4.924 -9.907,-12.166 -12.591,-21.726l-103.526,-368.886c-1.981,-7.925 -2.054,-14.785 -0.22,-20.581c1.834,-5.796 5.227,-10.325 10.18,-13.588c4.953,-3.262 10.896,-4.893 17.829,-4.893c8.04,-0 14.681,2.04 19.924,6.12c5.244,4.081 9.204,11.364 11.882,21.851l94.994,350.568l-23.015,0l209.783,-356.08c4.665,-7.924 9.678,-13.648 15.04,-17.173c5.361,-3.524 12.209,-5.286 20.542,-5.286c8.621,-0 15.305,1.951 20.053,5.852c4.748,3.901 7.472,8.999 8.172,15.294c0.7,6.295 -1.136,12.966 -5.507,20.015l-223.05,372.289c-4.773,8.161 -10.045,14.136 -15.816,17.926c-5.771,3.789 -13.088,5.684 -21.951,5.684Z" style="fill:#18181b;fill-rule:nonzero;"/><path d="M1487.37,1049.59c-12.007,-0 -20.69,-3.176 -26.049,-9.528c-5.358,-6.353 -7.194,-15.385 -5.507,-27.099l57.697,-364.765c1.693,-10.429 5.642,-18.222 11.847,-23.379c6.206,-5.158 14.465,-7.736 24.78,-7.736l221.88,-0c8.742,-0 15.473,1.733 20.192,5.2c4.719,3.467 7.079,8.581 7.079,15.342c0,9.969 -2.812,17.604 -8.435,22.905c-5.624,5.301 -12.893,7.951 -21.808,7.951l-197.417,0l-21.683,135.868l179.645,0c8.743,0 15.401,1.734 19.977,5.2c4.576,3.467 6.863,8.581 6.863,15.342c0,9.969 -2.813,17.604 -8.44,22.905c-5.627,5.301 -12.894,7.952 -21.802,7.952l-184.458,-0l-22.728,142.443l192.347,0c8.742,0 15.473,1.734 20.192,5.2c4.719,3.467 7.079,8.581 7.079,15.342c0,9.97 -2.812,17.605 -8.435,22.905c-5.624,5.301 -12.893,7.952 -21.808,7.952l-221.008,-0Z" style="fill:#18181b;fill-rule:nonzero;"/><path d="M1974.11,1054.14c-7.63,-0 -13.95,-1.793 -18.96,-5.378c-5.01,-3.585 -8.084,-8.365 -9.222,-14.34c-1.137,-5.975 0.48,-12.547 4.851,-19.718l229.941,-380.331c4.659,-7.631 9.845,-13.179 15.558,-16.646c5.713,-3.467 12.676,-5.2 20.887,-5.2c8.621,-0 15.729,2.126 21.324,6.379c5.595,4.253 9.526,10.632 11.795,19.138l106.938,375.002c2.799,9.388 3.384,17.069 1.754,23.044c-1.629,5.975 -4.746,10.477 -9.351,13.506c-4.604,3.029 -10.226,4.544 -16.866,4.544c-9.087,-0 -16.152,-2.39 -21.194,-7.17c-5.042,-4.78 -8.844,-11.976 -11.407,-21.587l-25.009,-94.841l21.702,13.372l-257.884,-0l27.482,-12.068l-60.342,102.883c-3.674,6.473 -8.119,11.327 -13.333,14.561c-5.215,3.233 -11.436,4.85 -18.664,4.85Zm235.09,-366.337l-126.311,215.803l-13.679,-11.091l213.914,0l-15.317,11.963l-57.38,-216.675l-1.227,0Z" style="fill:#18181b;fill-rule:nonzero;"/><path d="M2456.25,1054.14c-9.905,-0 -17.231,-3.291 -21.975,-9.873c-4.745,-6.582 -6.127,-15.817 -4.146,-27.703l58.31,-367.851c1.687,-10.602 5.647,-18.525 11.881,-23.768c6.234,-5.243 14.594,-7.865 25.081,-7.865l128.832,-0c47.142,-0 82.731,10.485 106.765,31.455c24.035,20.971 36.052,49.771 36.052,86.401c0,30.31 -6.937,55.482 -20.81,75.516c-13.874,20.034 -32.918,34.974 -57.131,44.818c-24.214,9.845 -51.712,14.502 -82.495,13.971l0,-8.493l12.759,0c18.398,0 33.524,5.273 45.379,15.817c11.854,10.544 21.404,25.309 28.651,44.295l35.122,91.764c3.381,8.621 4.678,16.036 3.892,22.244c-0.786,6.208 -3.627,10.972 -8.522,14.292c-4.895,3.32 -11.739,4.98 -20.532,4.98c-8.506,-0 -15.307,-2.198 -20.403,-6.595c-5.097,-4.397 -9.482,-11.404 -13.157,-21.021l-42.1,-110.341c-6.026,-16.379 -14.011,-27.96 -23.955,-34.744c-9.943,-6.783 -24.216,-10.175 -42.819,-10.175l-74.721,-0l-23.609,151.243c-1.572,10.487 -5.371,18.381 -11.398,23.682c-6.026,5.301 -14.343,7.951 -24.951,7.951Zm67.732,-231.226l114.406,-0c30.533,-0 54.296,-7.18 71.289,-21.539c16.992,-14.36 25.488,-34.995 25.488,-61.905c-0,-23.747 -7.135,-41.587 -21.405,-53.522c-14.27,-11.934 -36.876,-17.901 -67.819,-17.901l-97.381,0l-24.578,154.867Z" style="fill:#18181b;fill-rule:nonzero;"/><path d="M2964.77,1054.14c-10.193,-0 -17.59,-3.291 -22.191,-9.873c-4.601,-6.582 -6.058,-15.673 -4.371,-27.272l54.725,-346.341l-125.027,0c-9.029,0 -16.08,-2.009 -21.151,-6.029c-5.07,-4.02 -7.606,-9.41 -7.606,-16.171c0,-10.02 2.957,-17.754 8.872,-23.202c5.914,-5.448 13.68,-8.172 23.298,-8.172l318.389,-0c9.151,-0 16.232,1.836 21.242,5.507c5.01,3.671 7.515,9.031 7.515,16.08c0,10.027 -2.855,17.864 -8.565,23.514c-5.71,5.649 -13.575,8.473 -23.595,8.473l-130.097,0l-55.779,351.853c-1.572,10.193 -5.256,18.013 -11.053,23.461c-5.796,5.448 -13.998,8.172 -24.606,8.172Z" style="fill:#18181b;fill-rule:nonzero;"/><path d="M3234.79,1054.14c-10.775,-0 -18.493,-3.291 -23.155,-9.873c-4.661,-6.582 -6.002,-15.877 -4.021,-27.885l58.924,-372.04c1.693,-10.609 5.481,-18.563 11.363,-23.864c5.883,-5.301 14.067,-7.951 24.554,-7.951c10.487,-0 17.988,3.219 22.503,9.657c4.514,6.439 5.781,15.806 3.8,28.101l-58.923,371.609c-1.572,10.486 -5.154,18.483 -10.746,23.988c-5.591,5.505 -13.691,8.258 -24.299,8.258Z" style="fill:#18181b;fill-rule:nonzero;"/><path d="M3523.07,1055.37c-17.886,-0 -35.625,-1.316 -53.215,-3.949c-17.589,-2.633 -34.521,-6.916 -50.794,-12.85c-16.274,-5.934 -31.392,-13.463 -45.355,-22.589c-6.352,-3.911 -10.56,-8.648 -12.624,-14.211c-2.064,-5.562 -2.542,-11.17 -1.433,-16.822c1.108,-5.653 3.556,-10.533 7.342,-14.643c3.787,-4.109 8.565,-6.569 14.336,-7.381c5.77,-0.811 12.183,0.882 19.238,5.081c19.574,12.289 40.1,20.86 61.579,25.714c21.478,4.853 43.65,7.28 66.515,7.28c31,-0 55.728,-6.261 74.184,-18.783c18.455,-12.522 27.683,-29.318 27.683,-50.388c0,-15.151 -5.44,-28.009 -16.319,-38.572c-10.88,-10.564 -29.839,-18.859 -56.877,-24.885l-65.087,-15.596c-29.147,-6.831 -52.396,-18.992 -69.746,-36.483c-17.35,-17.491 -26.025,-41.666 -26.025,-72.525c0,-20.437 4.322,-38.803 12.965,-55.099c8.643,-16.296 20.643,-30.225 35.999,-41.789c15.356,-11.564 33.066,-20.384 53.129,-26.461c20.063,-6.078 41.456,-9.116 64.181,-9.116c22.737,-0 46.494,3.26 71.269,9.782c24.776,6.521 46.772,17.122 65.988,31.8c5.65,3.911 9.436,8.708 11.359,14.389c1.924,5.681 2.301,11.276 1.132,16.784c-1.17,5.509 -3.649,10.068 -7.439,13.679c-3.79,3.611 -8.685,5.604 -14.685,5.981c-6.001,0.378 -12.963,-1.882 -20.888,-6.777c-15.139,-10.838 -32.209,-18.759 -51.211,-23.763c-19.002,-5.003 -37.92,-7.505 -56.752,-7.505c-19.536,-0 -37.038,3.072 -52.506,9.216c-15.468,6.145 -27.562,14.66 -36.282,25.546c-8.72,10.887 -13.08,23.733 -13.08,38.54c0,18.379 4.915,32.131 14.743,41.257c9.829,9.125 24.303,16.116 43.424,20.973l65.096,15.596c37.582,8.704 65.445,22.285 83.587,40.744c18.143,18.459 27.214,40.805 27.214,67.038c0,21.427 -4.467,40.331 -13.401,56.713c-8.934,16.382 -21.269,30.02 -37.005,40.912c-15.737,10.893 -33.855,19.143 -54.356,24.75c-20.501,5.608 -42.461,8.412 -65.883,8.412Z" style="fill:#18181b;fill-rule:nonzero;"/><path d="M3747.5,1054.14c-7.63,-0 -13.95,-1.793 -18.961,-5.378c-5.01,-3.585 -8.083,-8.365 -9.221,-14.34c-1.137,-5.975 0.479,-12.547 4.85,-19.718l229.942,-380.331c4.659,-7.631 9.845,-13.179 15.558,-16.646c5.713,-3.467 12.675,-5.2 20.887,-5.2c8.621,-0 15.729,2.126 21.323,6.379c5.595,4.253 9.527,10.632 11.796,19.138l106.938,375.002c2.799,9.388 3.384,17.069 1.754,23.044c-1.63,5.975 -4.747,10.477 -9.351,13.506c-4.604,3.029 -10.226,4.544 -16.866,4.544c-9.087,-0 -16.152,-2.39 -21.194,-7.17c-5.042,-4.78 -8.844,-11.976 -11.407,-21.587l-25.009,-94.841l21.702,13.372l-257.884,-0l27.482,-12.068l-60.342,102.883c-3.674,6.473 -8.119,11.327 -13.334,14.561c-5.214,3.233 -11.435,4.85 -18.663,4.85Zm235.089,-366.337l-126.31,215.803l-13.679,-11.091l213.914,0l-15.318,11.963l-57.38,-216.675l-1.227,0Z" style="fill:#18181b;fill-rule:nonzero;"/><path d="M4228.41,1054.14c-9.203,-0 -16.148,-3.074 -20.835,-9.221c-4.687,-6.148 -6.245,-14.814 -4.673,-25.997l60.409,-379.297c1.687,-9.445 5.109,-16.322 10.266,-20.633c5.158,-4.31 11.551,-6.465 19.181,-6.465c8.219,-0 14.411,1.588 18.577,4.764c4.167,3.176 8.375,8.288 12.625,15.337l196.564,337.119l-14.1,0l51.849,-327.946c1.693,-10.02 5.336,-17.404 10.927,-22.152c5.592,-4.748 13.341,-7.122 23.246,-7.122c9.202,-0 15.858,3.074 19.967,9.221c4.109,6.148 5.317,14.669 3.623,25.565l-59.968,378.856c-1.284,9.324 -4.258,16.316 -8.919,20.978c-4.662,4.662 -10.808,6.993 -18.439,6.993c-8.211,-0 -14.765,-1.69 -19.66,-5.071c-4.895,-3.38 -9.528,-8.681 -13.899,-15.903l-196.555,-336.247l13.919,0l-51.859,327.946c-1.278,9.905 -4.496,17.261 -9.653,22.067c-5.157,4.805 -12.688,7.208 -22.593,7.208Z" style="fill:#18181b;fill-rule:nonzero;"/><path d="M4809.91,1055.37c-17.887,-0 -35.626,-1.316 -53.215,-3.949c-17.59,-2.633 -34.522,-6.916 -50.795,-12.85c-16.273,-5.934 -31.392,-13.463 -45.355,-22.589c-6.352,-3.911 -10.56,-8.648 -12.624,-14.211c-2.064,-5.562 -2.542,-11.17 -1.433,-16.822c1.109,-5.653 3.556,-10.533 7.342,-14.643c3.787,-4.109 8.565,-6.569 14.336,-7.381c5.771,-0.811 12.183,0.882 19.238,5.081c19.574,12.289 40.101,20.86 61.579,25.714c21.478,4.853 43.65,7.28 66.515,7.28c31,-0 55.728,-6.261 74.184,-18.783c18.456,-12.522 27.683,-29.318 27.683,-50.388c0,-15.151 -5.439,-28.009 -16.319,-38.572c-10.88,-10.564 -29.839,-18.859 -56.877,-24.885l-65.087,-15.596c-29.147,-6.831 -52.395,-18.992 -69.745,-36.483c-17.351,-17.491 -26.026,-41.666 -26.026,-72.525c0,-20.437 4.322,-38.803 12.965,-55.099c8.643,-16.296 20.643,-30.225 35.999,-41.789c15.356,-11.564 33.066,-20.384 53.129,-26.461c20.063,-6.078 41.456,-9.116 64.181,-9.116c22.737,-0 46.494,3.26 71.27,9.782c24.775,6.521 46.771,17.122 65.988,31.8c5.649,3.911 9.435,8.708 11.359,14.389c1.923,5.681 2.3,11.276 1.131,16.784c-1.17,5.509 -3.649,10.068 -7.439,13.679c-3.789,3.611 -8.684,5.604 -14.685,5.981c-6.001,0.378 -12.963,-1.882 -20.887,-6.777c-15.139,-10.838 -32.21,-18.759 -51.212,-23.763c-19.002,-5.003 -37.919,-7.505 -56.752,-7.505c-19.536,-0 -37.038,3.072 -52.506,9.216c-15.468,6.145 -27.562,14.66 -36.282,25.546c-8.719,10.887 -13.079,23.733 -13.079,38.54c-0,18.379 4.914,32.131 14.742,41.257c9.829,9.125 24.303,16.116 43.424,20.973l65.096,15.596c37.583,8.704 65.445,22.285 83.588,40.744c18.142,18.459 27.213,40.805 27.213,67.038c0,21.427 -4.467,40.331 -13.4,56.713c-8.934,16.382 -21.27,30.02 -37.006,40.912c-15.737,10.893 -33.855,19.143 -54.356,24.75c-20.5,5.608 -42.461,8.412 -65.882,8.412Z" style="fill:#18181b;fill-rule:nonzero;"/></g></g></svg>